999
dxfrw 0.6.3
  0
SECTION
  2
HEADER
  9
$ACADVER
  1
AC1009
  9
$DWGCODEPAGE
  3
ANSI_1252
  9
$INSBASE
 10
0
 20
0
 30
0
  9
$EXTMIN
 10
-1335.663222368058
 20
-740.1839281414343
 30
0
  9
$EXTMAX
 10
1362.183042585578
 20
726.9861521064935
 30
0
  9
$LIMMIN
 10
0
 20
0
  9
$LIMMAX
 10
420
 20
297
  9
$ORTHOMODE
 70
    0
  9
$REGENMODE
 70
    1
  9
$FILLMODE
 70
    1
  9
$QTEXTMODE
 70
    0
  9
$MIRRTEXT
 70
    0
  9
$DRAGMODE
 70
    2
  9
$LTSCALE
 40
1
  9
$OSMODE
 70
    0
  9
$ATTMODE
 70
    0
  9
$TEXTSIZE
 40
2.5
  9
$TRACEWID
 40
15.68
  9
$TEXTSTYLE
  7
STANDARD
  9
$CLAYER
  8
0
  9
$CELTYPE
  6
BYLAYER
  9
$CECOLOR
 62
  256
  9
$DIMSCALE
 40
2.5
  9
$DIMASZ
 40
2.5
  9
$DIMEXO
 40
0.625
  9
$DIMDLI
 40
3.75
  9
$DIMRND
 40
0
  9
$DIMDLE
 40
0
  9
$DIMEXE
 40
1.25
  9
$DIMTP
 40
0
  9
$DIMTM
 40
0
  9
$DIMTXT
 40
2.5
  9
$DIMCEN
 40
2.5
  9
$DIMTSZ
 40
0
  9
$DIMTOL
 70
    0
  9
$DIMLIM
 70
    0
  9
$DIMTIH
 70
    0
  9
$DIMTOH
 70
    0
  9
$DIMSE1
 70
    0
  9
$DIMSE2
 70
    0
  9
$DIMTAD
 70
    1
  9
$DIMZIN
 70
    8
  9
$DIMBLK
  1

  9
$DIMASO
 70
    1
  9
$DIMSHO
 70
    1
  9
$DIMPOST
  1

  9
$DIMAPOST
  1

  9
$DIMALT
 70
    0
  9
$DIMALTD
 70
    3
  9
$DIMALTF
 40
0.03937
  9
$DIMLFAC
 40
1
  9
$DIMTOFL
 70
    1
  9
$DIMTVP
 40
0
  9
$DIMTIX
 70
    0
  9
$DIMSOXD
 70
    0
  9
$DIMSAH
 70
    0
  9
$DIMBLK1
  1

  9
$DIMBLK2
  1

  9
$DIMSTYLE
  2
STANDARD
  9
$DIMCLRD
 70
    0
  9
$DIMCLRE
 70
    0
  9
$DIMCLRT
 70
    0
  9
$DIMTFAC
 40
1
  9
$DIMGAP
 40
0.625
  9
$LUNITS
 70
    2
  9
$LUPREC
 70
    4
  9
$SKETCHINC
 40
1
  9
$FILLETRAD
 40
0
  9
$AUNITS
 70
    0
  9
$AUPREC
 70
    2
  9
$MENU
  1
.
  9
$ELEVATION
 40
0
  9
$PELEVATION
 40
0
  9
$THICKNESS
 40
0
  9
$LIMCHECK
 70
    0
  9
$BLIPMODE
 70
    0
  9
$CHAMFERA
 40
0
  9
$CHAMFERB
 40
0
  9
$SKPOLY
 70
    0
  9
$USRTIMER
 70
    1
  9
$ANGBASE
 50
0
  9
$ANGDIR
 70
    0
  9
$PDMODE
 70
   34
  9
$PDSIZE
 40
0
  9
$PLINEWID
 40
0
  9
$COORDS
 70
    2
  9
$SPLFRAME
 70
    0
  9
$SPLINETYPE
 70
    2
  9
$SPLINESEGS
 70
    8
  9
$ATTDIA
 70
    1
  9
$ATTREQ
 70
    1
  9
$HANDLING
 70
    1
  9
$HANDSEED
  5
20000
  9
$SURFTAB1
 70
    6
  9
$SURFTAB2
 70
    6
  9
$SURFTYPE
 70
    6
  9
$SURFU
 70
    6
  9
$SURFV
 70
    6
  9
$UCSNAME
  2

  9
$UCSORG
 10
0
 20
0
 30
0
  9
$UCSXDIR
 10
1
 20
0
 30
0
  9
$UCSYDIR
 10
0
 20
1
 30
0
  9
$PUCSNAME
  2

  9
$PUCSORG
 10
0
 20
0
 30
0
  9
$PUCSXDIR
 10
1
 20
0
 30
0
  9
$PUCSYDIR
 10
0
 20
1
 30
0
  9
$USERI1
 70
    0
  9
$USERI2
 70
    0
  9
$USERI3
 70
    0
  9
$USERI4
 70
    0
  9
$USERI5
 70
    0
  9
$USERR1
 40
0
  9
$USERR2
 40
0
  9
$USERR3
 40
0
  9
$USERR4
 40
0
  9
$USERR5
 40
0
  9
$WORLDVIEW
 70
    1
  9
$SHADEDGE
 70
    3
  9
$SHADEDIF
 70
   70
  9
$TILEMODE
 70
    1
  9
$MAXACTVP
 70
   64
  9
$PLIMCHECK
 70
    0
  9
$PEXTMIN
 10
0
 20
0
 30
0
  9
$PEXTMAX
 10
0
 20
0
 30
0
  9
$GRIDMODE
 70
    1
  9
$SNAPSTYLE
 70
    0
  9
$PLIMMIN
 10
0
 20
0
  9
$PLIMMAX
 10
12
 20
9
  9
$UNITMODE
 70
    0
  9
$VISRETAIN
 70
    1
  9
$PLINEGEN
 70
    0
  9
$PSLTSCALE
 70
    1
  0
ENDSEC
  0
SECTION
  2
TABLES
  0
TABLE
  2
VPORT
 70
    1
  0
VPORT
  2
*ACTIVE
 70
    0
 10
0
 20
0
 11
1
 21
1
 12
860.094227943238
 22
521.7124852036648
 13
0
 23
0
 14
10
 24
10
 15
10
 25
10
 16
0
 26
0
 36
1
 17
0
 27
0
 37
0
 40
2157.061714524311
 41
1.561482820976492
 42
50
 43
0
 44
0
 50
0
 51
0
 71
    0
 72
  100
 73
    1
 74
    3
 75
    0
 76
    1
 77
    0
 78
    0
  0
ENDTAB
  0
TABLE
  2
LTYPE
 70
    4
  0
LTYPE
  2
BYBLOCK
 70
    0
  3

 72
   65
 73
    0
 40
0
  0
LTYPE
  2
BYLAYER
 70
    0
  3

 72
   65
 73
    0
 40
0
  0
LTYPE
  2
CONTINUOUS
 70
    0
  3
Solid line
 72
   65
 73
    0
 40
0
  0
LTYPE
  2
DOT
 70
    0
  3
Dot . . . . . . . . . . . . . . . . . . . . . .
 72
   65
 73
    2
 40
6.35
 49
0
 49
-6.35
  0
LTYPE
  2
DOTTINY
 70
    0
  3
Dot (.15x) .....................................
 72
   65
 73
    2
 40
0.9525
 49
0
 49
-0.9525
  0
LTYPE
  2
DOT2
 70
    0
  3
Dot (.5x) .....................................
 72
   65
 73
    2
 40
3.175
 49
0
 49
-3.175
  0
LTYPE
  2
DOTX2
 70
    0
  3
Dot (2x) .  .  .  .  .  .  .  .  .  .  .  .  .
 72
   65
 73
    2
 40
12.7
 49
0
 49
-12.7
  0
LTYPE
  2
DASHED
 70
    0
  3
Dashed _ _ _ _ _ _ _ _ _ _ _ _ _ _ _ _ _
 72
   65
 73
    2
 40
19.05
 49
12.7
 49
-6.35
  0
LTYPE
  2
DASHEDTINY
 70
    0
  3
Dashed (.15x) _ _ _ _ _ _ _ _ _ _ _ _ _ _ _ _ _
 72
   65
 73
    2
 40
2.8575
 49
1.905
 49
-0.9525
  0
LTYPE
  2
DASHED2
 70
    0
  3
Dashed (.5x) _ _ _ _ _ _ _ _ _ _ _ _ _ _ _ _ _
 72
   65
 73
    2
 40
9.524999999999999
 49
6.35
 49
-3.175
  0
LTYPE
  2
DASHEDX2
 70
    0
  3
Dashed (2x) ____  ____  ____  ____  ____  ___
 72
   65
 73
    2
 40
38.09999999999999
 49
25.4
 49
-12.7
  0
LTYPE
  2
DASHDOT
 70
    0
  3
Dash dot __ . __ . __ . __ . __ . __ . __ . __
 72
   65
 73
    4
 40
25.4
 49
12.7
 49
-6.35
 49
0
 49
-6.35
  0
LTYPE
  2
DASHDOTTINY
 70
    0
  3
Dash dot (.15x) _._._._._._._._._._._._._._._.
 72
   65
 73
    4
 40
3.81
 49
1.905
 49
-0.9525
 49
0
 49
-0.9525
  0
LTYPE
  2
DASHDOT2
 70
    0
  3
Dash dot (.5x) _._._._._._._._._._._._._._._.
 72
   65
 73
    4
 40
12.7
 49
6.35
 49
-3.175
 49
0
 49
-3.175
  0
LTYPE
  2
DASHDOTX2
 70
    0
  3
Dash dot (2x) ____  .  ____  .  ____  .  ___
 72
   65
 73
    4
 40
50.8
 49
25.4
 49
-12.7
 49
0
 49
-12.7
  0
LTYPE
  2
DIVIDE
 70
    0
  3
Divide ____ . . ____ . . ____ . . ____ . . ____
 72
   65
 73
    6
 40
31.75
 49
12.7
 49
-6.35
 49
0
 49
-6.35
 49
0
 49
-6.35
  0
LTYPE
  2
DIVIDETINY
 70
    0
  3
Divide (.15x) __..__..__..__..__..__..__..__.._
 72
   65
 73
    6
 40
4.7625
 49
1.905
 49
-0.9525
 49
0
 49
-0.9525
 49
0
 49
-0.9525
  0
LTYPE
  2
DIVIDE2
 70
    0
  3
Divide (.5x) __..__..__..__..__..__..__..__.._
 72
   65
 73
    6
 40
15.875
 49
6.35
 49
-3.175
 49
0
 49
-3.175
 49
0
 49
-3.175
  0
LTYPE
  2
DIVIDEX2
 70
    0
  3
Divide (2x) ________  .  .  ________  .  .  _
 72
   65
 73
    6
 40
63.5
 49
25.4
 49
-12.7
 49
0
 49
-12.7
 49
0
 49
-12.7
  0
LTYPE
  2
BORDER
 70
    0
  3
Border __ __ . __ __ . __ __ . __ __ . __ __ .
 72
   65
 73
    6
 40
44.45
 49
12.7
 49
-6.35
 49
12.7
 49
-6.35
 49
0
 49
-6.35
  0
LTYPE
  2
BORDERTINY
 70
    0
  3
Border (.15x) __.__.__.__.__.__.__.__.__.__.__.
 72
   65
 73
    6
 40
6.6675
 49
1.905
 49
-0.9525
 49
1.905
 49
-0.9525
 49
0
 49
-0.9525
  0
LTYPE
  2
BORDER2
 70
    0
  3
Border (.5x) __.__.__.__.__.__.__.__.__.__.__.
 72
   65
 73
    6
 40
22.225
 49
6.35
 49
-3.175
 49
6.35
 49
-3.175
 49
0
 49
-3.175
  0
LTYPE
  2
BORDERX2
 70
    0
  3
Border (2x) ____  ____  .  ____  ____  .  ___
 72
   65
 73
    6
 40
88.89999999999999
 49
25.4
 49
-12.7
 49
25.4
 49
-12.7
 49
0
 49
-12.7
  0
LTYPE
  2
CENTER
 70
    0
  3
Center ____ _ ____ _ ____ _ ____ _ ____ _ ____
 72
   65
 73
    4
 40
50.8
 49
31.75
 49
-6.35
 49
6.35
 49
-6.35
  0
LTYPE
  2
CENTERTINY
 70
    0
  3
Center (.15x) ___ _ ___ _ ___ _ ___ _ ___ _ ___
 72
   65
 73
    4
 40
7.62
 49
4.7625
 49
-0.9525
 49
0.9525
 49
-0.9525
  0
LTYPE
  2
CENTER2
 70
    0
  3
Center (.5x) ___ _ ___ _ ___ _ ___ _ ___ _ ___
 72
   65
 73
    4
 40
28.575
 49
19.05
 49
-3.175
 49
3.175
 49
-3.175
  0
LTYPE
  2
CENTERX2
 70
    0
  3
Center (2x) ________  __  ________  __  _____
 72
   65
 73
    4
 40
101.6
 49
63.5
 49
-12.7
 49
12.7
 49
-12.7
  0
ENDTAB
  0
TABLE
  2
LAYER
 70
    1
  0
LAYER
  2
0
 70
    0
 62
    7
  6
CONTINUOUS
  0
LAYER
  2
LAYER 1
 70
    0
 62
    7
  6
CONTINUOUS
  0
ENDTAB
  0
TABLE
  2
STYLE
 70
    3
  0
STYLE
  2
STANDARD
 70
    0
 40
0
 41
1
 50
0
 71
    0
 42
1
  3
TXT
  4

  0
ENDTAB
  0
TABLE
  2
VIEW
 70
    0
  0
ENDTAB
  0
TABLE
  2
UCS
 70
    0
  0
ENDTAB
  0
TABLE
  2
APPID
 70
    1
  0
APPID
  2
ACAD
 70
    0
  0
APPID
  2
LIBRECAD
 70
    0
  0
ENDTAB
  0
TABLE
  2
DIMSTYLE
 70
    1
  0
DIMSTYLE
  2
STANDARD
 70
    0
  3

  4

  5

  6

  7

 40
1
 41
2.5
 42
0.625
 43
0.38
 44
1.25
 45
0
 46
0
 47
0
 48
0
 49
1
140
2.5
141
0.09
142
2.5
143
25.4
144
1
145
0
146
1
147
0.625
 71
    0
 72
    0
 73
    0
 74
    1
 75
    0
 76
    0
 77
    0
 78
    1
170
    0
171
    2
172
    0
173
    0
174
    0
175
    0
176
    0
177
    0
178
    0
  0
ENDTAB
  0
ENDSEC
  0
SECTION
  2
BLOCKS
  0
BLOCK
  8
0
  2
$MODEL_SPACE
 70
    0
 10
0
 20
0
 30
0
  3
$MODEL_SPACE
  1

  0
ENDBLK
  8
0
  0
BLOCK
  8
0
  2
$PAPER_SPACE
 70
    0
 10
0
 20
0
 30
0
  3
$PAPER_SPACE
  1

  0
ENDBLK
  8
0
  0
BLOCK
  8
0
  2
OUTLINE_
 70
    0
 10
0
 20
0
  3
OUTLINE_
  1

  0
POLYLINE
  5
31
  8
LAYER 1
  6
BYLAYER
 62
    7
 66
    1
 10
0
 20
0
 30
0
 70
    1
  0
VERTEX
  5
32
  8
LAYER 1
  6
BYLAYER
 62
    7
 10
328.7770593485445
 20
1380.598799335182
 30
0
  0
VERTEX
  5
33
  8
LAYER 1
  6
BYLAYER
 62
    7
 10
329.9699662314435
 20
1391.767368334802
 30
0
  0
VERTEX
  5
34
  8
LAYER 1
  6
BYLAYER
 62
    7
 10
332.13110453412
 20
1404.716634381776
 30
0
  0
VERTEX
  5
35
  8
LAYER 1
  6
BYLAYER
 62
    7
 10
336.0094308121156
 20
1418.916263408643
 30
0
  0
VERTEX
  5
36
  8
LAYER 1
  6
BYLAYER
 62
    7
 10
342.3539016209719
 20
1433.835921347946
 30
0
  0
VERTEX
  5
37
  8
LAYER 1
  6
BYLAYER
 62
    7
 10
351.9134735162307
 20
1448.945274132224
 30
0
  0
VERTEX
  5
38
  8
LAYER 1
  6
BYLAYER
 62
    7
 10
365.4371030534339
 20
1463.713987694018
 30
0
  0
VERTEX
  5
39
  8
LAYER 1
  6
BYLAYER
 62
    7
 10
383.6737467881233
 20
1477.611727965868
 30
0
  0
VERTEX
  5
3A
  8
LAYER 1
  6
BYLAYER
 62
    7
 10
407.3723612758403
 20
1490.108160880315
 30
0
  0
VERTEX
  5
3B
  8
LAYER 1
  6
BYLAYER
 62
    7
 10
437.2775409773192
 20
1500.675232935271
 30
0
  0
VERTEX
  5
3C
  8
LAYER 1
  6
BYLAYER
 62
    7
 10
473.6459476741513
 20
1509.03998879148
 30
0
  0
VERTEX
  5
3D
  8
LAYER 1
  6
BYLAYER
 62
    7
 10
515.8073320801957
 20
1515.414075434135
 30
0
  0
VERTEX
  5
3E
  8
LAYER 1
  6
BYLAYER
 62
    7
 10
562.9877855196191
 20
1520.063334455599
 30
0
  0
VERTEX
  5
3F
  8
LAYER 1
  6
BYLAYER
 62
    7
 10
614.4133993165873
 20
1523.253607448233
 30
0
  0
VERTEX
  5
40
  8
LAYER 1
  6
BYLAYER
 62
    7
 10
669.3102647952661
 20
1525.2507360044
 30
0
  0
VERTEX
  5
41
  8
LAYER 1
  6
BYLAYER
 62
    7
 10
726.9044732798221
 20
1526.320561716463
 30
0
  0
VERTEX
  5
42
  8
LAYER 1
  6
BYLAYER
 62
    7
 10
786.4221160944211
 20
1526.728926176783
 30
0
  0
VERTEX
  5
43
  8
LAYER 1
  6
BYLAYER
 62
    7
 10
847.0892845632292
 20
1526.741670977722
 30
0
  0
VERTEX
  5
44
  8
LAYER 1
  6
BYLAYER
 62
    7
 10
908.1439216717428
 20
1526.618539595774
 30
0
  0
VERTEX
  5
45
  8
LAYER 1
  6
BYLAYER
 62
    7
 10
969.0769727040544
 20
1526.48909651486
 30
0
  0
VERTEX
  5
46
  8
LAYER 1
  6
BYLAYER
 62
    7
 10
1029.621960063223
 20
1526.358091364881
 30
0
  0
VERTEX
  5
47
  8
LAYER 1
  6
BYLAYER
 62
    7
 10
1089.522171620319
 20
1526.225249083091
 30
0
  0
VERTEX
  5
48
  8
LAYER 1
  6
BYLAYER
 62
    7
 10
1148.520895246418
 20
1526.090294606748
 30
0
  0
VERTEX
  5
49
  8
LAYER 1
  6
BYLAYER
 62
    7
 10
1206.36141881259
 20
1525.952952873108
 30
0
  0
VERTEX
  5
4A
  8
LAYER 1
  6
BYLAYER
 62
    7
 10
1262.78703018991
 20
1525.812948819429
 30
0
  0
VERTEX
  5
4B
  8
LAYER 1
  6
BYLAYER
 62
    7
 10
1317.541017249449
 20
1525.670007382966
 30
0
  0
VERTEX
  5
4C
  8
LAYER 1
  6
BYLAYER
 62
    7
 10
1370.366667862281
 20
1525.523853500976
 30
0
  0
VERTEX
  5
4D
  8
LAYER 1
  6
BYLAYER
 62
    7
 10
1421.070473057084
 20
1525.374731780223
 30
0
  0
VERTEX
  5
4E
  8
LAYER 1
  6
BYLAYER
 62
    7
 10
1469.966775681398
 20
1525.227062490745
 30
0
  0
VERTEX
  5
4F
  8
LAYER 1
  6
BYLAYER
 62
    7
 10
1517.614519923324
 20
1525.087277065673
 30
0
  0
VERTEX
  5
50
  8
LAYER 1
  6
BYLAYER
 62
    7
 10
1564.574218162738
 20
1524.961819832139
 30
0
  0
VERTEX
  5
51
  8
LAYER 1
  6
BYLAYER
 62
    7
 10
1611.406382779516
 20
1524.857135117272
 30
0
  0
VERTEX
  5
52
  8
LAYER 1
  6
BYLAYER
 62
    7
 10
1658.671526153535
 20
1524.779667248204
 30
0
  0
VERTEX
  5
53
  8
LAYER 1
  6
BYLAYER
 62
    7
 10
1706.930160664669
 20
1524.735860552064
 30
0
  0
VERTEX
  5
54
  8
LAYER 1
  6
BYLAYER
 62
    7
 10
1756.742798692795
 20
1524.732159355984
 30
0
  0
VERTEX
  5
55
  8
LAYER 1
  6
BYLAYER
 62
    7
 10
1808.669947782365
 20
1524.77500791726
 30
0
  0
VERTEX
  5
56
  8
LAYER 1
  6
BYLAYER
 62
    7
 10
1863.113687658264
 20
1524.868562440813
 30
0
  0
VERTEX
  5
57
  8
LAYER 1
  6
BYLAYER
 62
    7
 10
1919.90077450735
 20
1525.008670171744
 30
0
  0
VERTEX
  5
58
  8
LAYER 1
  6
BYLAYER
 62
    7
 10
1978.727408078676
 20
1525.189292827923
 30
0
  0
VERTEX
  5
59
  8
LAYER 1
  6
BYLAYER
 62
    7
 10
2039.289788121291
 20
1525.404392127223
 30
0
  0
VERTEX
  5
5A
  8
LAYER 1
  6
BYLAYER
 62
    7
 10
2101.284114384249
 20
1525.647929787515
 30
0
  0
VERTEX
  5
5B
  8
LAYER 1
  6
BYLAYER
 62
    7
 10
2164.4065866166
 20
1525.91386752667
 30
0
  0
VERTEX
  5
5C
  8
LAYER 1
  6
BYLAYER
 62
    7
 10
2228.353404567396
 20
1526.196167062561
 30
0
  0
VERTEX
  5
5D
  8
LAYER 1
  6
BYLAYER
 62
    7
 10
2292.82076798569
 20
1526.488790113058
 30
0
  0
VERTEX
  5
5E
  8
LAYER 1
  6
BYLAYER
 62
    7
 10
2357.502627319107
 20
1526.7846196865
 30
0
  0
VERTEX
  5
5F
  8
LAYER 1
  6
BYLAYER
 62
    7
 10
2421.904460685895
 20
1526.986152106494
 30
0
  0
VERTEX
  5
60
  8
LAYER 1
  6
BYLAYER
 62
    7
 10
2485.203807930302
 20
1526.83861258168
 30
0
  0
VERTEX
  5
61
  8
LAYER 1
  6
BYLAYER
 62
    7
 10
2546.545354902679
 20
1526.071470354833
 30
0
  0
VERTEX
  5
62
  8
LAYER 1
  6
BYLAYER
 62
    7
 10
2605.073787453381
 20
1524.414194668728
 30
0
  0
VERTEX
  5
63
  8
LAYER 1
  6
BYLAYER
 62
    7
 10
2659.933791432758
 20
1521.59625476614
 30
0
  0
VERTEX
  5
64
  8
LAYER 1
  6
BYLAYER
 62
    7
 10
2710.270052691162
 20
1517.347119889841
 30
0
  0
VERTEX
  5
65
  8
LAYER 1
  6
BYLAYER
 62
    7
 10
2755.227257078945
 20
1511.396259282608
 30
0
  0
VERTEX
  5
66
  8
LAYER 1
  6
BYLAYER
 62
    7
 10
2793.95009044646
 20
1503.473142187214
 30
0
  0
VERTEX
  5
67
  8
LAYER 1
  6
BYLAYER
 62
    7
 10
2825.630485464071
 20
1493.329438289578
 30
0
  0
VERTEX
  5
68
  8
LAYER 1
  6
BYLAYER
 62
    7
 10
2850.334916998767
 20
1481.127749150157
 30
0
  0
VERTEX
  5
69
  8
LAYER 1
  6
BYLAYER
 62
    7
 10
2868.900628363957
 20
1467.392846758396
 30
0
  0
VERTEX
  5
6A
  8
LAYER 1
  6
BYLAYER
 62
    7
 10
2882.191251082718
 20
1452.66190245566
 30
0
  0
VERTEX
  5
6B
  8
LAYER 1
  6
BYLAYER
 62
    7
 10
2891.07041667813
 20
1437.472087583316
 30
0
  0
VERTEX
  5
6C
  8
LAYER 1
  6
BYLAYER
 62
    7
 10
2896.40175667327
 20
1422.360573482731
 30
0
  0
VERTEX
  5
6D
  8
LAYER 1
  6
BYLAYER
 62
    7
 10
2899.048902591218
 20
1407.86453149527
 30
0
  0
VERTEX
  5
6E
  8
LAYER 1
  6
BYLAYER
 62
    7
 10
2899.875485955054
 20
1394.521132962299
 30
0
  0
VERTEX
  5
6F
  8
LAYER 1
  6
BYLAYER
 62
    7
 10
2899.745138287855
 20
1382.867549225185
 30
0
  0
VERTEX
  5
70
  8
LAYER 1
  6
BYLAYER
 62
    7
 10
2899.445258648165
 20
1373.370686772734
 30
0
  0
VERTEX
  5
71
  8
LAYER 1
  6
BYLAYER
 62
    7
 10
2899.211366961195
 20
1365.988775033753
 30
0
  0
VERTEX
  5
72
  8
LAYER 1
  6
BYLAYER
 62
    7
 10
2899.036068708846
 20
1360.456144765426
 30
0
  0
VERTEX
  5
73
  8
LAYER 1
  6
BYLAYER
 62
    7
 10
2898.910915535428
 20
1356.506155383611
 30
0
  0
VERTEX
  5
74
  8
LAYER 1
  6
BYLAYER
 62
    7
 10
2898.827459085252
 20
1353.872166304168
 30
0
  0
VERTEX
  5
75
  8
LAYER 1
  6
BYLAYER
 62
    7
 10
2898.777251002627
 20
1352.287536942956
 30
0
  0
VERTEX
  5
76
  8
LAYER 1
  6
BYLAYER
 62
    7
 10
2898.751842931866
 20
1351.485626715834
 30
0
  0
VERTEX
  5
77
  8
LAYER 1
  6
BYLAYER
 62
    7
 10
2898.742786517277
 20
1351.199795038662
 30
0
  0
VERTEX
  5
78
  8
LAYER 1
  6
BYLAYER
 62
    7
 10
2898.741638031438
 20
1351.163347228474
 30
0
  0
VERTEX
  5
79
  8
LAYER 1
  6
BYLAYER
 62
    7
 10
2898.760725981052
 20
1350.866786311993
 30
0
  0
VERTEX
  5
7A
  8
LAYER 1
  6
BYLAYER
 62
    7
 10
2898.880902657782
 20
1348.999655157929
 30
0
  0
VERTEX
  5
7B
  8
LAYER 1
  6
BYLAYER
 62
    7
 10
2899.197130199226
 20
1344.086569603705
 30
0
  0
VERTEX
  5
7C
  8
LAYER 1
  6
BYLAYER
 62
    7
 10
2899.804370742976
 20
1334.652145486741
 30
0
  0
VERTEX
  5
7D
  8
LAYER 1
  6
BYLAYER
 62
    7
 10
2900.797586426627
 20
1319.22099864446
 30
0
  0
VERTEX
  5
7E
  8
LAYER 1
  6
BYLAYER
 62
    7
 10
2902.271739387776
 20
1296.317744914283
 30
0
  0
VERTEX
  5
7F
  8
LAYER 1
  6
BYLAYER
 62
    7
 10
2904.321791764016
 20
1264.467000133632
 30
0
  0
VERTEX
  5
80
  8
LAYER 1
  6
BYLAYER
 62
    7
 10
2907.042705692943
 20
1222.193380139929
 30
0
  0
VERTEX
  5
81
  8
LAYER 1
  6
BYLAYER
 62
    7
 10
2910.527849506345
 20
1168.046263016956
 30
0
  0
VERTEX
  5
82
  8
LAYER 1
  6
BYLAYER
 62
    7
 10
2914.76712006921
 20
1102.182616644381
 30
0
  0
VERTEX
  5
83
  8
LAYER 1
  6
BYLAYER
 62
    7
 10
2919.585353341928
 20
1027.32388618383
 30
0
  0
VERTEX
  5
84
  8
LAYER 1
  6
BYLAYER
 62
    7
 10
2924.79262504931
 20
946.4208399604566
 30
0
  0
VERTEX
  5
85
  8
LAYER 1
  6
BYLAYER
 62
    7
 10
2930.199010916165
 20
862.4242462994191
 30
0
  0
VERTEX
  5
86
  8
LAYER 1
  6
BYLAYER
 62
    7
 10
2935.614586667303
 20
778.2848735258729
 30
0
  0
VERTEX
  5
87
  8
LAYER 1
  6
BYLAYER
 62
    7
 10
2940.849428027535
 20
696.9534899649748
 30
0
  0
VERTEX
  5
88
  8
LAYER 1
  6
BYLAYER
 62
    7
 10
2945.71361072167
 20
621.380863941881
 30
0
  0
VERTEX
  5
89
  8
LAYER 1
  6
BYLAYER
 62
    7
 10
2950.017210474519
 20
554.5177637817478
 30
0
  0
VERTEX
  5
8A
  8
LAYER 1
  6
BYLAYER
 62
    7
 10
2953.57959808636
 20
499.1705443889647
 30
0
  0
VERTEX
  5
8B
  8
LAYER 1
  6
BYLAYER
 62
    7
 10
2956.370473714993
 20
455.8099608290689
 30
0
  0
VERTEX
  5
8C
  8
LAYER 1
  6
BYLAYER
 62
    7
 10
2958.481297906656
 20
423.0150315947334
 30
0
  0
VERTEX
  5
8D
  8
LAYER 1
  6
BYLAYER
 62
    7
 10
2960.007032798943
 20
399.3103725233802
 30
0
  0
VERTEX
  5
8E
  8
LAYER 1
  6
BYLAYER
 62
    7
 10
2961.042640529451
 20
383.2205994524311
 30
0
  0
VERTEX
  5
8F
  8
LAYER 1
  6
BYLAYER
 62
    7
 10
2961.683083235774
 20
373.2703282193079
 30
0
  0
VERTEX
  5
90
  8
LAYER 1
  6
BYLAYER
 62
    7
 10
2962.023323055505
 20
367.9841746614324
 30
0
  0
VERTEX
  5
91
  8
LAYER 1
  6
BYLAYER
 62
    7
 10
2962.158322126242
 20
365.8867546162264
 30
0
  0
VERTEX
  5
92
  8
LAYER 1
  6
BYLAYER
 62
    7
 10
2962.183042585578
 20
365.5026839211115
 30
0
  0
VERTEX
  5
93
  8
LAYER 1
  6
BYLAYER
 62
    7
 10
2962.179943877551
 20
365.4823439836165
 30
0
  0
VERTEX
  5
94
  8
LAYER 1
  6
BYLAYER
 62
    7
 10
2962.14975911711
 20
365.2982077328895
 30
0
  0
VERTEX
  5
95
  8
LAYER 1
  6
BYLAYER
 62
    7
 10
2962.060388332956
 20
364.7530186746519
 30
0
  0
VERTEX
  5
96
  8
LAYER 1
  6
BYLAYER
 62
    7
 10
2961.879642635006
 20
363.6504147556964
 30
0
  0
VERTEX
  5
97
  8
LAYER 1
  6
BYLAYER
 62
    7
 10
2961.575333133168
 20
361.7940339228153
 30
0
  0
VERTEX
  5
98
  8
LAYER 1
  6
BYLAYER
 62
    7
 10
2961.115270937355
 20
358.9875141228016
 30
0
  0
VERTEX
  5
99
  8
LAYER 1
  6
BYLAYER
 62
    7
 10
2960.467267157478
 20
355.0344933024472
 30
0
  0
VERTEX
  5
9A
  8
LAYER 1
  6
BYLAYER
 62
    7
 10
2959.59913290345
 20
349.7386094085452
 30
0
  0
VERTEX
  5
9B
  8
LAYER 1
  6
BYLAYER
 62
    7
 10
2958.478658051732
 20
342.9035786738702
 30
0
  0
VERTEX
  5
9C
  8
LAYER 1
  6
BYLAYER
 62
    7
 10
2957.042807800218
 20
334.446765382027
 30
0
  0
VERTEX
  5
9D
  8
LAYER 1
  6
BYLAYER
 62
    7
 10
2955.136086680317
 20
324.6264286779347
 30
0
  0
VERTEX
  5
9E
  8
LAYER 1
  6
BYLAYER
 62
    7
 10
2952.585735641846
 20
313.7644771098143
 30
0
  0
VERTEX
  5
9F
  8
LAYER 1
  6
BYLAYER
 62
    7
 10
2949.218995634626
 20
302.1828192258866
 30
0
  0
VERTEX
  5
A0
  8
LAYER 1
  6
BYLAYER
 62
    7
 10
2944.863107608477
 20
290.2033635743726
 30
0
  0
VERTEX
  5
A1
  8
LAYER 1
  6
BYLAYER
 62
    7
 10
2939.345312513218
 20
278.1480187034931
 30
0
  0
VERTEX
  5
A2
  8
LAYER 1
  6
BYLAYER
 62
    7
 10
2932.492851298668
 20
266.3386931614691
 30
0
  0
VERTEX
  5
A3
  8
LAYER 1
  6
BYLAYER
 62
    7
 10
2924.132964914647
 20
255.0972954965214
 30
0
  0
VERTEX
  5
A4
  8
LAYER 1
  6
BYLAYER
 62
    7
 10
2914.095788766486
 20
244.7424272830517
 30
0
  0
VERTEX
  5
A5
  8
LAYER 1
  6
BYLAYER
 62
    7
 10
2902.360995704104
 20
235.4218405479653
 30
0
  0
VERTEX
  5
A6
  8
LAYER 1
  6
BYLAYER
 62
    7
 10
2889.127138999379
 20
227.0332120199738
 30
0
  0
VERTEX
  5
A7
  8
LAYER 1
  6
BYLAYER
 62
    7
 10
2874.610169102313
 20
219.4543418007748
 30
0
  0
VERTEX
  5
A8
  8
LAYER 1
  6
BYLAYER
 62
    7
 10
2859.026036462912
 20
212.5630299920663
 30
0
  0
VERTEX
  5
A9
  8
LAYER 1
  6
BYLAYER
 62
    7
 10
2842.590691531179
 20
206.2370766955457
 30
0
  0
VERTEX
  5
AA
  8
LAYER 1
  6
BYLAYER
 62
    7
 10
2825.520084757118
 20
200.3542820129107
 30
0
  0
VERTEX
  5
AB
  8
LAYER 1
  6
BYLAYER
 62
    7
 10
2808.03016659073
 20
194.792446045859
 30
0
  0
VERTEX
  5
AC
  8
LAYER 1
  6
BYLAYER
 62
    7
 10
2790.336887482024
 20
189.4293688960883
 30
0
  0
VERTEX
  5
AD
  8
LAYER 1
  6
BYLAYER
 62
    7
 10
2772.64329420151
 20
184.1505974970641
 30
0
  0
VERTEX
  5
AE
  8
LAYER 1
  6
BYLAYER
 62
    7
 10
2754.968888602697
 20
178.9518715063521
 30
0
  0
VERTEX
  5
AF
  8
LAYER 1
  6
BYLAYER
 62
    7
 10
2737.196601229489
 20
173.9109223080364
 30
0
  0
VERTEX
  5
B0
  8
LAYER 1
  6
BYLAYER
 62
    7
 10
2719.206111778997
 20
169.1074329592285
 30
0
  0
VERTEX
  5
B1
  8
LAYER 1
  6
BYLAYER
 62
    7
 10
2700.877099948332
 20
164.6210865170401
 30
0
  0
VERTEX
  5
B2
  8
LAYER 1
  6
BYLAYER
 62
    7
 10
2682.089245434604
 20
160.5315660385827
 30
0
  0
VERTEX
  5
B3
  8
LAYER 1
  6
BYLAYER
 62
    7
 10
2662.722227934924
 20
156.9185545809677
 30
0
  0
VERTEX
  5
B4
  8
LAYER 1
  6
BYLAYER
 62
    7
 10
2642.655727146404
 20
153.8617352013068
 30
0
  0
VERTEX
  5
B5
  8
LAYER 1
  6
BYLAYER
 62
    7
 10
2621.769422766153
 20
151.4407909567115
 30
0
  0
VERTEX
  5
B6
  8
LAYER 1
  6
BYLAYER
 62
    7
 10
2599.963674030947
 20
149.7083891680994
 30
0
  0
VERTEX
  5
B7
  8
LAYER 1
  6
BYLAYER
 62
    7
 10
2577.261112434134
 20
148.5574607656825
 30
0
  0
VERTEX
  5
B8
  8
LAYER 1
  6
BYLAYER
 62
    7
 10
2553.729146246024
 20
147.8224403294797
 30
0
  0
VERTEX
  5
B9
  8
LAYER 1
  6
BYLAYER
 62
    7
 10
2529.435250977212
 20
147.3376745968477
 30
0
  0
VERTEX
  5
BA
  8
LAYER 1
  6
BYLAYER
 62
    7
 10
2504.446902138297
 20
146.9375103051434
 30
0
  0
VERTEX
  5
BB
  8
LAYER 1
  6
BYLAYER
 62
    7
 10
2478.831575239872
 20
146.4562941917237
 30
0
  0
VERTEX
  5
BC
  8
LAYER 1
  6
BYLAYER
 62
    7
 10
2452.656745792534
 20
145.7283729939452
 30
0
  0
VERTEX
  5
BD
  8
LAYER 1
  6
BYLAYER
 62
    7
 10
2425.989889306878
 20
144.588093449165
 30
0
  0
VERTEX
  5
BE
  8
LAYER 1
  6
BYLAYER
 62
    7
 10
2398.898472162424
 20
142.8698911902662
 30
0
  0
VERTEX
  5
BF
  8
LAYER 1
  6
BYLAYER
 62
    7
 10
2371.443880153874
 20
140.4673993257955
 30
0
  0
VERTEX
  5
C0
  8
LAYER 1
  6
BYLAYER
 62
    7
 10
2343.670894780657
 20
137.4359019232072
 30
0
  0
VERTEX
  5
C1
  8
LAYER 1
  6
BYLAYER
 62
    7
 10
2315.621489307591
 20
133.858022591322
 30
0
  0
VERTEX
  5
C2
  8
LAYER 1
  6
BYLAYER
 62
    7
 10
2287.337636999491
 20
129.8163849389602
 30
0
  0
VERTEX
  5
C3
  8
LAYER 1
  6
BYLAYER
 62
    7
 10
2258.861311121174
 20
125.3936125749425
 30
0
  0
VERTEX
  5
C4
  8
LAYER 1
  6
BYLAYER
 62
    7
 10
2230.234484937459
 20
120.6723291080894
 30
0
  0
VERTEX
  5
C5
  8
LAYER 1
  6
BYLAYER
 62
    7
 10
2201.499131713161
 20
115.7351581472213
 30
0
  0
VERTEX
  5
C6
  8
LAYER 1
  6
BYLAYER
 62
    7
 10
2172.697224713098
 20
110.6647233011589
 30
0
  0
VERTEX
  5
C7
  8
LAYER 1
  6
BYLAYER
 62
    7
 10
2143.86574266403
 20
105.5433628923195
 30
0
  0
VERTEX
  5
C8
  8
LAYER 1
  6
BYLAYER
 62
    7
 10
2114.831838777574
 20
100.4414300773614
 30
0
  0
VERTEX
  5
C9
  8
LAYER 1
  6
BYLAYER
 62
    7
 10
2085.140671409508
 20
95.41317055771694
 30
0
  0
VERTEX
  5
CA
  8
LAYER 1
  6
BYLAYER
 62
    7
 10
2054.317573952339
 20
90.51169763930987
 30
0
  0
VERTEX
  5
CB
  8
LAYER 1
  6
BYLAYER
 62
    7
 10
2021.88787979858
 20
85.79012462806405
 30
0
  0
VERTEX
  5
CC
  8
LAYER 1
  6
BYLAYER
 62
    7
 10
1987.376922340739
 20
81.30156482990319
 30
0
  0
VERTEX
  5
CD
  8
LAYER 1
  6
BYLAYER
 62
    7
 10
1950.310034971327
 20
77.0991315507511
 30
0
  0
VERTEX
  5
CE
  8
LAYER 1
  6
BYLAYER
 62
    7
 10
1910.212551082853
 20
73.23593809653156
 30
0
  0
VERTEX
  5
CF
  8
LAYER 1
  6
BYLAYER
 62
    7
 10
1866.609804067829
 20
69.76509777316831
 30
0
  0
VERTEX
  5
D0
  8
LAYER 1
  6
BYLAYER
 62
    7
 10
1819.090344325408
 20
66.73921973100119
 30
0
  0
VERTEX
  5
D1
  8
LAYER 1
  6
BYLAYER
 62
    7
 10
1768.038079121709
 20
64.204570149909
 30
0
  0
VERTEX
  5
D2
  8
LAYER 1
  6
BYLAYER
 62
    7
 10
1714.380297503464
 20
62.20308174044823
 30
0
  0
VERTEX
  5
D3
  8
LAYER 1
  6
BYLAYER
 62
    7
 10
1659.054806246881
 20
60.77660333428999
 30
0
  0
VERTEX
  5
D4
  8
LAYER 1
  6
BYLAYER
 62
    7
 10
1602.999412128171
 20
59.96698376310544
 30
0
  0
VERTEX
  5
D5
  8
LAYER 1
  6
BYLAYER
 62
    7
 10
1547.151921923543
 20
59.81607185856571
 30
0
  0
VERTEX
  5
D6
  8
LAYER 1
  6
BYLAYER
 62
    7
 10
1492.450142409208
 20
60.36571645234192
 30
0
  0
VERTEX
  5
D7
  8
LAYER 1
  6
BYLAYER
 62
    7
 10
1439.831880361375
 20
61.65776637610526
 30
0
  0
VERTEX
  5
D8
  8
LAYER 1
  6
BYLAYER
 62
    7
 10
1390.234942556254
 20
63.73407046152687
 30
0
  0
VERTEX
  5
D9
  8
LAYER 1
  6
BYLAYER
 62
    7
 10
1344.425067792826
 20
66.61967562920108
 30
0
  0
VERTEX
  5
DA
  8
LAYER 1
  6
BYLAYER
 62
    7
 10
1302.246429447756
 20
70.24964075821316
 30
0
  0
VERTEX
  5
DB
  8
LAYER 1
  6
BYLAYER
 62
    7
 10
1263.235968006153
 20
74.52902437658409
 30
0
  0
VERTEX
  5
DC
  8
LAYER 1
  6
BYLAYER
 62
    7
 10
1226.930412317038
 20
79.36286434671891
 30
0
  0
VERTEX
  5
DD
  8
LAYER 1
  6
BYLAYER
 62
    7
 10
1192.866491229431
 20
84.65619853102265
 30
0
  0
VERTEX
  5
DE
  8
LAYER 1
  6
BYLAYER
 62
    7
 10
1160.580933592355
 20
90.31406479190046
 30
0
  0
VERTEX
  5
DF
  8
LAYER 1
  6
BYLAYER
 62
    7
 10
1129.610468254832
 20
96.24150099175738
 30
0
  0
VERTEX
  5
E0
  8
LAYER 1
  6
BYLAYER
 62
    7
 10
1099.491824065882
 20
102.3435449929985
 30
0
  0
VERTEX
  5
E1
  8
LAYER 1
  6
BYLAYER
 62
    7
 10
1069.762090615067
 20
108.5252319375672
 30
0
  0
VERTEX
  5
E2
  8
LAYER 1
  6
BYLAYER
 62
    7
 10
1040.091560215159
 20
114.6905924423888
 30
0
  0
VERTEX
  5
E3
  8
LAYER 1
  6
BYLAYER
 62
    7
 10
1010.482086138859
 20
120.7411567154531
 30
0
  0
VERTEX
  5
E4
  8
LAYER 1
  6
BYLAYER
 62
    7
 10
980.9862446648301
 20
126.5780724460803
 30
0
  0
VERTEX
  5
E5
  8
LAYER 1
  6
BYLAYER
 62
    7
 10
951.656612071736
 20
132.1024873235905
 30
0
  0
VERTEX
  5
E6
  8
LAYER 1
  6
BYLAYER
 62
    7
 10
922.5457646382391
 20
137.2155490373039
 30
0
  0
VERTEX
  5
E7
  8
LAYER 1
  6
BYLAYER
 62
    7
 10
893.7062786430022
 20
141.8184052765406
 30
0
  0
VERTEX
  5
E8
  8
LAYER 1
  6
BYLAYER
 62
    7
 10
865.1907303646883
 20
145.8122037306208
 30
0
  0
VERTEX
  5
E9
  8
LAYER 1
  6
BYLAYER
 62
    7
 10
837.0516960819606
 20
149.0980920888647
 30
0
  0
VERTEX
  5
EA
  8
LAYER 1
  6
BYLAYER
 62
    7
 10
809.3419087193846
 20
151.5805531654922
 30
0
  0
VERTEX
  5
EB
  8
LAYER 1
  6
BYLAYER
 62
    7
 10
782.119548229478
 20
153.2800416463011
 30
0
  0
VERTEX
  5
EC
  8
LAYER 1
  6
BYLAYER
 62
    7
 10
755.4495196436033
 20
154.3601948823991
 30
0
  0
VERTEX
  5
ED
  8
LAYER 1
  6
BYLAYER
 62
    7
 10
729.3971438141995
 20
154.9935034103364
 30
0
  0
VERTEX
  5
EE
  8
LAYER 1
  6
BYLAYER
 62
    7
 10
704.0277415937063
 20
155.3524577666628
 30
0
  0
VERTEX
  5
EF
  8
LAYER 1
  6
BYLAYER
 62
    7
 10
679.4066338345631
 20
155.6095484879283
 30
0
  0
VERTEX
  5
F0
  8
LAYER 1
  6
BYLAYER
 62
    7
 10
655.5991413892093
 20
155.9372661106831
 30
0
  0
VERTEX
  5
F1
  8
LAYER 1
  6
BYLAYER
 62
    7
 10
632.6705851100844
 20
156.5081011714771
 30
0
  0
VERTEX
  5
F2
  8
LAYER 1
  6
BYLAYER
 62
    7
 10
610.6862858496278
 20
157.4945442068603
 30
0
  0
VERTEX
  5
F3
  8
LAYER 1
  6
BYLAYER
 62
    7
 10
589.7020717625647
 20
159.0563403747892
 30
0
  0
VERTEX
  5
F4
  8
LAYER 1
  6
BYLAYER
 62
    7
 10
569.6676159721934
 20
161.2107056907239
 30
0
  0
VERTEX
  5
F5
  8
LAYER 1
  6
BYLAYER
 62
    7
 10
550.4660463660613
 20
163.8855091532077
 30
0
  0
VERTEX
  5
F6
  8
LAYER 1
  6
BYLAYER
 62
    7
 10
531.9794658130658
 20
167.0072435186291
 30
0
  0
VERTEX
  5
F7
  8
LAYER 1
  6
BYLAYER
 62
    7
 10
514.0899771821045
 20
170.5024015433766
 30
0
  0
VERTEX
  5
F8
  8
LAYER 1
  6
BYLAYER
 62
    7
 10
496.6796833420751
 20
174.2974759838388
 30
0
  0
VERTEX
  5
F9
  8
LAYER 1
  6
BYLAYER
 62
    7
 10
479.6306871618755
 20
178.3189595964045
 30
0
  0
VERTEX
  5
FA
  8
LAYER 1
  6
BYLAYER
 62
    7
 10
462.8250915104033
 20
182.4933451374621
 30
0
  0
VERTEX
  5
FB
  8
LAYER 1
  6
BYLAYER
 62
    7
 10
446.144999256556
 20
186.7471253634002
 30
0
  0
VERTEX
  5
FC
  8
LAYER 1
  6
BYLAYER
 62
    7
 10
429.5111647749872
 20
191.0379973257246
 30
0
  0
VERTEX
  5
FD
  8
LAYER 1
  6
BYLAYER
 62
    7
 10
413.0320516103748
 20
195.4752002273547
 30
0
  0
VERTEX
  5
FE
  8
LAYER 1
  6
BYLAYER
 62
    7
 10
396.8730252842784
 20
200.2139116129286
 30
0
  0
VERTEX
  5
FF
  8
LAYER 1
  6
BYLAYER
 62
    7
 10
381.1994639965976
 20
205.4093192626153
 30
0
  0
VERTEX
  5
100
  8
LAYER 1
  6
BYLAYER
 62
    7
 10
366.1767459472321
 20
211.2166109565837
 30
0
  0
VERTEX
  5
101
  8
LAYER 1
  6
BYLAYER
 62
    7
 10
351.970249336082
 20
217.7909744750028
 30
0
  0
VERTEX
  5
102
  8
LAYER 1
  6
BYLAYER
 62
    7
 10
338.7453523630467
 20
225.2875975980413
 30
0
  0
VERTEX
  5
103
  8
LAYER 1
  6
BYLAYER
 62
    7
 10
326.6674332280264
 20
233.8616681058684
 30
0
  0
VERTEX
  5
104
  8
LAYER 1
  6
BYLAYER
 62
    7
 10
315.9015339728742
 20
243.6677432805071
 30
0
  0
VERTEX
  5
105
  8
LAYER 1
  6
BYLAYER
 62
    7
 10
306.5352106534564
 20
254.7150476623936
 30
0
  0
VERTEX
  5
106
  8
LAYER 1
  6
BYLAYER
 62
    7
 10
298.4799783368473
 20
266.6826232537066
 30
0
  0
VERTEX
  5
107
  8
LAYER 1
  6
BYLAYER
 62
    7
 10
291.6230351018103
 20
279.2039031051042
 30
0
  0
VERTEX
  5
108
  8
LAYER 1
  6
BYLAYER
 62
    7
 10
285.8515790271084
 20
291.9123202672436
 30
0
  0
VERTEX
  5
109
  8
LAYER 1
  6
BYLAYER
 62
    7
 10
281.0528081915048
 20
304.441307790783
 30
0
  0
VERTEX
  5
10A
  8
LAYER 1
  6
BYLAYER
 62
    7
 10
277.1139206737625
 20
316.4242987263798
 30
0
  0
VERTEX
  5
10B
  8
LAYER 1
  6
BYLAYER
 62
    7
 10
273.9221145526447
 20
327.4947261246918
 30
0
  0
VERTEX
  5
10C
  8
LAYER 1
  6
BYLAYER
 62
    7
 10
271.3645879069144
 20
337.2860230363768
 30
0
  0
VERTEX
  5
10D
  8
LAYER 1
  6
BYLAYER
 62
    7
 10
269.3294633628113
 20
345.4404927790293
 30
0
  0
VERTEX
  5
10E
  8
LAYER 1
  6
BYLAYER
 62
    7
 10
267.7318684866946
 20
351.8595286938298
 30
0
  0
VERTEX
  5
10F
  8
LAYER 1
  6
BYLAYER
 62
    7
 10
266.5175716421203
 20
356.7384971814467
 30
0
  0
VERTEX
  5
110
  8
LAYER 1
  6
BYLAYER
 62
    7
 10
265.6339965504256
 20
360.2886464287944
 30
0
  0
VERTEX
  5
111
  8
LAYER 1
  6
BYLAYER
 62
    7
 10
265.0285669329474
 20
362.7212246227874
 30
0
  0
VERTEX
  5
112
  8
LAYER 1
  6
BYLAYER
 62
    7
 10
264.6487065110229
 20
364.2474799503406
 30
0
  0
VERTEX
  5
113
  8
LAYER 1
  6
BYLAYER
 62
    7
 10
264.4418390059892
 20
365.0786605983685
 30
0
  0
VERTEX
  5
114
  8
LAYER 1
  6
BYLAYER
 62
    7
 10
264.3553881391833
 20
365.4260147537857
 30
0
  0
VERTEX
  5
115
  8
LAYER 1
  6
BYLAYER
 62
    7
 10
264.3367776319424
 20
365.5007906035068
 30
0
  0
VERTEX
  5
116
  8
LAYER 1
  6
BYLAYER
 62
    7
 10
264.3420601971612
 20
365.5895416272581
 30
0
  0
VERTEX
  5
117
  8
LAYER 1
  6
BYLAYER
 62
    7
 10
264.4134204380137
 20
366.7304951445918
 30
0
  0
VERTEX
  5
118
  8
LAYER 1
  6
BYLAYER
 62
    7
 10
264.6425445842983
 20
370.3938796495605
 30
0
  0
VERTEX
  5
119
  8
LAYER 1
  6
BYLAYER
 62
    7
 10
265.1217096373058
 20
378.0550793047428
 30
0
  0
VERTEX
  5
11A
  8
LAYER 1
  6
BYLAYER
 62
    7
 10
265.9431925983265
 20
391.1894782727167
 30
0
  0
VERTEX
  5
11B
  8
LAYER 1
  6
BYLAYER
 62
    7
 10
267.1992704686511
 20
411.2724607160604
 30
0
  0
VERTEX
  5
11C
  8
LAYER 1
  6
BYLAYER
 62
    7
 10
268.98222024957
 20
439.7794107973525
 30
0
  0
VERTEX
  5
11D
  8
LAYER 1
  6
BYLAYER
 62
    7
 10
271.3843189423736
 20
478.1857126791709
 30
0
  0
VERTEX
  5
11E
  8
LAYER 1
  6
BYLAYER
 62
    7
 10
274.4978435483528
 20
527.9667505240941
 30
0
  0
VERTEX
  5
11F
  8
LAYER 1
  6
BYLAYER
 62
    7
 10
278.373255100303
 20
589.9293278429977
 30
0
  0
VERTEX
  5
120
  8
LAYER 1
  6
BYLAYER
 62
    7
 10
282.8767440477811
 20
661.9340113126844
 30
0
  0
VERTEX
  5
121
  8
LAYER 1
  6
BYLAYER
 62
    7
 10
287.8237579369459
 20
741.0300573702443
 30
0
  0
VERTEX
  5
122
  8
LAYER 1
  6
BYLAYER
 62
    7
 10
293.0297427652159
 20
824.2666976905206
 30
0
  0
VERTEX
  5
123
  8
LAYER 1
  6
BYLAYER
 62
    7
 10
298.3101445300105
 20
908.6931639483566
 30
0
  0
VERTEX
  5
124
  8
LAYER 1
  6
BYLAYER
 62
    7
 10
303.4804092287484
 20
991.3586878185962
 30
0
  0
VERTEX
  5
125
  8
LAYER 1
  6
BYLAYER
 62
    7
 10
308.3559828588486
 20
1069.312500976083
 30
0
  0
VERTEX
  5
126
  8
LAYER 1
  6
BYLAYER
 62
    7
 10
312.7523114177302
 20
1139.603835095659
 30
0
  0
VERTEX
  5
127
  8
LAYER 1
  6
BYLAYER
 62
    7
 10
316.4853721204859
 20
1199.290415302672
 30
0
  0
VERTEX
  5
128
  8
LAYER 1
  6
BYLAYER
 62
    7
 10
319.453999749411
 20
1246.754746902688
 30
0
  0
VERTEX
  5
129
  8
LAYER 1
  6
BYLAYER
 62
    7
 10
321.7290615299267
 20
1283.129900764619
 30
0
  0
VERTEX
  5
12A
  8
LAYER 1
  6
BYLAYER
 62
    7
 10
323.4028344633238
 20
1309.891261051041
 30
0
  0
VERTEX
  5
12B
  8
LAYER 1
  6
BYLAYER
 62
    7
 10
324.5675955508926
 20
1328.514211924533
 30
0
  0
VERTEX
  5
12C
  8
LAYER 1
  6
BYLAYER
 62
    7
 10
325.3156217939238
 20
1340.474137547674
 30
0
  0
VERTEX
  5
12D
  8
LAYER 1
  6
BYLAYER
 62
    7
 10
325.7391901937076
 20
1347.246422083041
 30
0
  0
VERTEX
  5
12E
  8
LAYER 1
  6
BYLAYER
 62
    7
 10
325.9305777515349
 20
1350.306449693213
 30
0
  0
VERTEX
  5
12F
  8
LAYER 1
  6
BYLAYER
 62
    7
 10
325.982061468696
 20
1351.129604540768
 30
0
  0
VERTEX
  5
130
  8
LAYER 1
  6
BYLAYER
 62
    7
 10
325.9841760144608
 20
1351.16341326113
 30
0
  0
VERTEX
  5
131
  8
LAYER 1
  6
BYLAYER
 62
    7
 10
325.9841760144608
 20
1351.16341326113
 30
0
  0
VERTEX
  5
132
  8
LAYER 1
  6
BYLAYER
 62
    7
 10
325.9841760144608
 20
1351.16341326113
 30
0
  0
VERTEX
  5
133
  8
LAYER 1
  6
BYLAYER
 62
    7
 10
325.9841760144609
 20
1351.16341326113
 30
0
  0
VERTEX
  5
134
  8
LAYER 1
  6
BYLAYER
 62
    7
 10
325.9841760144609
 20
1351.16341326113
 30
0
  0
VERTEX
  5
135
  8
LAYER 1
  6
BYLAYER
 62
    7
 10
325.9841760144608
 20
1351.16341326113
 30
0
  0
VERTEX
  5
136
  8
LAYER 1
  6
BYLAYER
 62
    7
 10
325.9841760144608
 20
1351.16341326113
 30
0
  0
VERTEX
  5
137
  8
LAYER 1
  6
BYLAYER
 62
    7
 10
325.9841760144608
 20
1351.16341326113
 30
0
  0
VERTEX
  5
138
  8
LAYER 1
  6
BYLAYER
 62
    7
 10
325.9841760144608
 20
1351.16341326113
 30
0
  0
VERTEX
  5
139
  8
LAYER 1
  6
BYLAYER
 62
    7
 10
325.9858833875419
 20
1351.181407992668
 30
0
  0
VERTEX
  5
13A
  8
LAYER 1
  6
BYLAYER
 62
    7
 10
326.006272652484
 20
1351.396299133309
 30
0
  0
VERTEX
  5
13B
  8
LAYER 1
  6
BYLAYER
 62
    7
 10
326.0703550638053
 20
1352.071690938894
 30
0
  0
VERTEX
  5
13C
  8
LAYER 1
  6
BYLAYER
 62
    7
 10
326.2032137240565
 20
1353.471944902263
 30
0
  0
VERTEX
  5
13D
  8
LAYER 1
  6
BYLAYER
 62
    7
 10
326.4299317357888
 20
1355.861422516253
 30
0
  0
VERTEX
  5
13E
  8
LAYER 1
  6
BYLAYER
 62
    7
 10
326.7755922015529
 20
1359.504485273703
 30
0
  0
VERTEX
  5
13F
  8
LAYER 1
  6
BYLAYER
 62
    7
 10
327.2652782238998
 20
1364.665494667451
 30
0
  0
VERTEX
  5
140
  8
LAYER 1
  6
BYLAYER
 62
    7
 10
327.9240729053805
 20
1371.608812190336
 30
0
  0
SEQEND
  5
141
  8
LAYER 1
  6
BYLAYER
 62
    7
  0
ENDBLK
  8
0
  0
ENDSEC
  0
SECTION
  2
ENTITIES
  0
POLYLINE
  5
142
  8
LAYER 1
  6
BYLAYER
 62
  256
 66
    1
 10
0
 20
0
 30
0
 70
    1
  0
VERTEX
  5
143
  8
LAYER 1
  6
BYLAYER
 62
  256
 10
-1271.222940651456
 20
580.5987993351819
 30
0
  0
VERTEX
  5
144
  8
LAYER 1
  6
BYLAYER
 62
  256
 10
-1270.030033768557
 20
591.7673683348019
 30
0
  0
VERTEX
  5
145
  8
LAYER 1
  6
BYLAYER
 62
  256
 10
-1267.86889546588
 20
604.7166343817754
 30
0
  0
VERTEX
  5
146
  8
LAYER 1
  6
BYLAYER
 62
  256
 10
-1263.990569187884
 20
618.9162634086432
 30
0
  0
VERTEX
  5
147
  8
LAYER 1
  6
BYLAYER
 62
  256
 10
-1257.646098379028
 20
633.8359213479459
 30
0
  0
VERTEX
  5
148
  8
LAYER 1
  6
BYLAYER
 62
  256
 10
-1248.086526483769
 20
648.9452741322236
 30
0
  0
VERTEX
  5
149
  8
LAYER 1
  6
BYLAYER
 62
  256
 10
-1234.562896946566
 20
663.7139876940174
 30
0
  0
VERTEX
  5
14A
  8
LAYER 1
  6
BYLAYER
 62
  256
 10
-1216.326253211877
 20
677.6117279658678
 30
0
  0
VERTEX
  5
14B
  8
LAYER 1
  6
BYLAYER
 62
  256
 10
-1192.62763872416
 20
690.108160880315
 30
0
  0
VERTEX
  5
14C
  8
LAYER 1
  6
BYLAYER
 62
  256
 10
-1162.722459022681
 20
700.6752329352711
 30
0
  0
VERTEX
  5
14D
  8
LAYER 1
  6
BYLAYER
 62
  256
 10
-1126.354052325849
 20
709.0399887914803
 30
0
  0
VERTEX
  5
14E
  8
LAYER 1
  6
BYLAYER
 62
  256
 10
-1084.192667919804
 20
715.4140754341352
 30
0
  0
VERTEX
  5
14F
  8
LAYER 1
  6
BYLAYER
 62
  256
 10
-1037.012214480381
 20
720.0633344555988
 30
0
  0
VERTEX
  5
150
  8
LAYER 1
  6
BYLAYER
 62
  256
 10
-985.5866006834127
 20
723.253607448233
 30
0
  0
VERTEX
  5
151
  8
LAYER 1
  6
BYLAYER
 62
  256
 10
-930.6897352047339
 20
725.2507360044001
 30
0
  0
VERTEX
  5
152
  8
LAYER 1
  6
BYLAYER
 62
  256
 10
-873.095526720178
 20
726.3205617164626
 30
0
  0
VERTEX
  5
153
  8
LAYER 1
  6
BYLAYER
 62
  256
 10
-813.5778839055789
 20
726.7289261767825
 30
0
  0
VERTEX
  5
154
  8
LAYER 1
  6
BYLAYER
 62
  256
 10
-752.9107154367708
 20
726.741670977722
 30
0
  0
VERTEX
  5
155
  8
LAYER 1
  6
BYLAYER
 62
  256
 10
-691.8560783282575
 20
726.618539595774
 30
0
  0
VERTEX
  5
156
  8
LAYER 1
  6
BYLAYER
 62
  256
 10
-630.9230272959455
 20
726.4890965148604
 30
0
  0
VERTEX
  5
157
  8
LAYER 1
  6
BYLAYER
 62
  256
 10
-570.3780399367776
 20
726.3580913648805
 30
0
  0
VERTEX
  5
158
  8
LAYER 1
  6
BYLAYER
 62
  256
 10
-510.4778283796808
 20
726.2252490830907
 30
0
  0
VERTEX
  5
159
  8
LAYER 1
  6
BYLAYER
 62
  256
 10
-451.4791047535824
 20
726.0902946067478
 30
0
  0
VERTEX
  5
15A
  8
LAYER 1
  6
BYLAYER
 62
  256
 10
-393.6385811874098
 20
725.9529528731082
 30
0
  0
VERTEX
  5
15B
  8
LAYER 1
  6
BYLAYER
 62
  256
 10
-337.2129698100903
 20
725.8129488194287
 30
0
  0
VERTEX
  5
15C
  8
LAYER 1
  6
BYLAYER
 62
  256
 10
-282.4589827505511
 20
725.6700073829658
 30
0
  0
VERTEX
  5
15D
  8
LAYER 1
  6
BYLAYER
 62
  256
 10
-229.6333321377195
 20
725.5238535009762
 30
0
  0
VERTEX
  5
15E
  8
LAYER 1
  6
BYLAYER
 62
  256
 10
-178.9295269429155
 20
725.374731780223
 30
0
  0
VERTEX
  5
15F
  8
LAYER 1
  6
BYLAYER
 62
  256
 10
-130.0332243186023
 20
725.2270624907447
 30
0
  0
VERTEX
  5
160
  8
LAYER 1
  6
BYLAYER
 62
  256
 10
-82.38548007667653
 20
725.0872770656731
 30
0
  0
VERTEX
  5
161
  8
LAYER 1
  6
BYLAYER
 62
  256
 10
-35.42578183726223
 20
724.9618198321385
 30
0
  0
VERTEX
  5
162
  8
LAYER 1
  6
BYLAYER
 62
  256
 10
11.40638277951628
 20
724.8571351172718
 30
0
  0
VERTEX
  5
163
  8
LAYER 1
  6
BYLAYER
 62
  256
 10
58.67152615353484
 20
724.7796672482035
 30
0
  0
VERTEX
  5
164
  8
LAYER 1
  6
BYLAYER
 62
  256
 10
106.9301606646692
 20
724.735860552064
 30
0
  0
VERTEX
  5
165
  8
LAYER 1
  6
BYLAYER
 62
  256
 10
156.7427986927952
 20
724.732159355984
 30
0
  0
VERTEX
  5
166
  8
LAYER 1
  6
BYLAYER
 62
  256
 10
208.6699477823649
 20
724.7750079172598
 30
0
  0
VERTEX
  5
167
  8
LAYER 1
  6
BYLAYER
 62
  256
 10
263.1136876582636
 20
724.8685624408129
 30
0
  0
VERTEX
  5
168
  8
LAYER 1
  6
BYLAYER
 62
  256
 10
319.9007745073499
 20
725.0086701717432
 30
0
  0
VERTEX
  5
169
  8
LAYER 1
  6
BYLAYER
 62
  256
 10
378.7274080786752
 20
725.1892928279229
 30
0
  0
VERTEX
  5
16A
  8
LAYER 1
  6
BYLAYER
 62
  256
 10
439.2897881212909
 20
725.4043921272226
 30
0
  0
VERTEX
  5
16B
  8
LAYER 1
  6
BYLAYER
 62
  256
 10
501.2841143842488
 20
725.6479297875146
 30
0
  0
VERTEX
  5
16C
  8
LAYER 1
  6
BYLAYER
 62
  256
 10
564.4065866166002
 20
725.9138675266705
 30
0
  0
VERTEX
  5
16D
  8
LAYER 1
  6
BYLAYER
 62
  256
 10
628.3534045673965
 20
726.196167062561
 30
0
  0
VERTEX
  5
16E
  8
LAYER 1
  6
BYLAYER
 62
  256
 10
692.8207679856896
 20
726.4887901130585
 30
0
  0
VERTEX
  5
16F
  8
LAYER 1
  6
BYLAYER
 62
  256
 10
757.5026273191075
 20
726.7846196865003
 30
0
  0
VERTEX
  5
170
  8
LAYER 1
  6
BYLAYER
 62
  256
 10
821.9044606858947
 20
726.9861521064935
 30
0
  0
VERTEX
  5
171
  8
LAYER 1
  6
BYLAYER
 62
  256
 10
885.2038079303014
 20
726.8386125816797
 30
0
  0
VERTEX
  5
172
  8
LAYER 1
  6
BYLAYER
 62
  256
 10
946.5453549026794
 20
726.0714703548332
 30
0
  0
VERTEX
  5
173
  8
LAYER 1
  6
BYLAYER
 62
  256
 10
1005.073787453381
 20
724.4141946687283
 30
0
  0
VERTEX
  5
174
  8
LAYER 1
  6
BYLAYER
 62
  256
 10
1059.933791432758
 20
721.5962547661395
 30
0
  0
VERTEX
  5
175
  8
LAYER 1
  6
BYLAYER
 62
  256
 10
1110.270052691162
 20
717.3471198898412
 30
0
  0
VERTEX
  5
176
  8
LAYER 1
  6
BYLAYER
 62
  256
 10
1155.227257078945
 20
711.3962592826076
 30
0
  0
VERTEX
  5
177
  8
LAYER 1
  6
BYLAYER
 62
  256
 10
1193.95009044646
 20
703.4731421872136
 30
0
  0
VERTEX
  5
178
  8
LAYER 1
  6
BYLAYER
 62
  256
 10
1225.630485464071
 20
693.3294382895782
 30
0
  0
VERTEX
  5
179
  8
LAYER 1
  6
BYLAYER
 62
  256
 10
1250.334916998768
 20
681.1277491501573
 30
0
  0
VERTEX
  5
17A
  8
LAYER 1
  6
BYLAYER
 62
  256
 10
1268.900628363957
 20
667.3928467583959
 30
0
  0
VERTEX
  5
17B
  8
LAYER 1
  6
BYLAYER
 62
  256
 10
1282.191251082718
 20
652.6619024556601
 30
0
  0
VERTEX
  5
17C
  8
LAYER 1
  6
BYLAYER
 62
  256
 10
1291.07041667813
 20
637.4720875833164
 30
0
  0
VERTEX
  5
17D
  8
LAYER 1
  6
BYLAYER
 62
  256
 10
1296.40175667327
 20
622.3605734827306
 30
0
  0
VERTEX
  5
17E
  8
LAYER 1
  6
BYLAYER
 62
  256
 10
1299.048902591219
 20
607.8645314952696
 30
0
  0
VERTEX
  5
17F
  8
LAYER 1
  6
BYLAYER
 62
  256
 10
1299.875485955054
 20
594.5211329622991
 30
0
  0
VERTEX
  5
180
  8
LAYER 1
  6
BYLAYER
 62
  256
 10
1299.745138287855
 20
582.8675492251856
 30
0
  0
VERTEX
  5
181
  8
LAYER 1
  6
BYLAYER
 62
  256
 10
1299.445258648165
 20
573.3706867727334
 30
0
  0
VERTEX
  5
182
  8
LAYER 1
  6
BYLAYER
 62
  256
 10
1299.211366961195
 20
565.988775033753
 30
0
  0
VERTEX
  5
183
  8
LAYER 1
  6
BYLAYER
 62
  256
 10
1299.036068708846
 20
560.4561447654257
 30
0
  0
VERTEX
  5
184
  8
LAYER 1
  6
BYLAYER
 62
  256
 10
1298.910915535428
 20
556.5061553836107
 30
0
  0
VERTEX
  5
185
  8
LAYER 1
  6
BYLAYER
 62
  256
 10
1298.827459085251
 20
553.8721663041675
 30
0
  0
VERTEX
  5
186
  8
LAYER 1
  6
BYLAYER
 62
  256
 10
1298.777251002627
 20
552.2875369429554
 30
0
  0
VERTEX
  5
187
  8
LAYER 1
  6
BYLAYER
 62
  256
 10
1298.751842931866
 20
551.4856267158335
 30
0
  0
VERTEX
  5
188
  8
LAYER 1
  6
BYLAYER
 62
  256
 10
1298.742786517277
 20
551.1997950386616
 30
0
  0
VERTEX
  5
189
  8
LAYER 1
  6
BYLAYER
 62
  256
 10
1298.741638031438
 20
551.1633472284733
 30
0
  0
VERTEX
  5
18A
  8
LAYER 1
  6
BYLAYER
 62
  256
 10
1298.760725981052
 20
550.8667863119928
 30
0
  0
VERTEX
  5
18B
  8
LAYER 1
  6
BYLAYER
 62
  256
 10
1298.880902657782
 20
548.9996551579292
 30
0
  0
VERTEX
  5
18C
  8
LAYER 1
  6
BYLAYER
 62
  256
 10
1299.197130199226
 20
544.0865696037047
 30
0
  0
VERTEX
  5
18D
  8
LAYER 1
  6
BYLAYER
 62
  256
 10
1299.804370742976
 20
534.652145486741
 30
0
  0
VERTEX
  5
18E
  8
LAYER 1
  6
BYLAYER
 62
  256
 10
1300.797586426627
 20
519.2209986444597
 30
0
  0
VERTEX
  5
18F
  8
LAYER 1
  6
BYLAYER
 62
  256
 10
1302.271739387776
 20
496.3177449142827
 30
0
  0
VERTEX
  5
190
  8
LAYER 1
  6
BYLAYER
 62
  256
 10
1304.321791764016
 20
464.467000133632
 30
0
  0
VERTEX
  5
191
  8
LAYER 1
  6
BYLAYER
 62
  256
 10
1307.042705692943
 20
422.1933801399293
 30
0
  0
VERTEX
  5
192
  8
LAYER 1
  6
BYLAYER
 62
  256
 10
1310.527849506345
 20
368.0462630169556
 30
0
  0
VERTEX
  5
193
  8
LAYER 1
  6
BYLAYER
 62
  256
 10
1314.76712006921
 20
302.1826166443814
 30
0
  0
VERTEX
  5
194
  8
LAYER 1
  6
BYLAYER
 62
  256
 10
1319.585353341928
 20
227.3238861838296
 30
0
  0
VERTEX
  5
195
  8
LAYER 1
  6
BYLAYER
 62
  256
 10
1324.79262504931
 20
146.4208399604568
 30
0
  0
VERTEX
  5
196
  8
LAYER 1
  6
BYLAYER
 62
  256
 10
1330.199010916165
 20
62.42424629941902
 30
0
  0
VERTEX
  5
197
  8
LAYER 1
  6
BYLAYER
 62
  256
 10
1335.614586667303
 20
-21.71512647412714
 30
0
  0
VERTEX
  5
198
  8
LAYER 1
  6
BYLAYER
 62
  256
 10
1340.849428027535
 20
-103.0465100350253
 30
0
  0
VERTEX
  5
199
  8
LAYER 1
  6
BYLAYER
 62
  256
 10
1345.71361072167
 20
-178.6191360581191
 30
0
  0
VERTEX
  5
19A
  8
LAYER 1
  6
BYLAYER
 62
  256
 10
1350.01721047452
 20
-245.4822362182522
 30
0
  0
VERTEX
  5
19B
  8
LAYER 1
  6
BYLAYER
 62
  256
 10
1353.57959808636
 20
-300.8294556110353
 30
0
  0
VERTEX
  5
19C
  8
LAYER 1
  6
BYLAYER
 62
  256
 10
1356.370473714993
 20
-344.1900391709312
 30
0
  0
VERTEX
  5
19D
  8
LAYER 1
  6
BYLAYER
 62
  256
 10
1358.481297906656
 20
-376.9849684052666
 30
0
  0
VERTEX
  5
19E
  8
LAYER 1
  6
BYLAYER
 62
  256
 10
1360.007032798944
 20
-400.6896274766196
 30
0
  0
VERTEX
  5
19F
  8
LAYER 1
  6
BYLAYER
 62
  256
 10
1361.042640529451
 20
-416.7794005475687
 30
0
  0
VERTEX
  5
1A0
  8
LAYER 1
  6
BYLAYER
 62
  256
 10
1361.683083235774
 20
-426.7296717806921
 30
0
  0
VERTEX
  5
1A1
  8
LAYER 1
  6
BYLAYER
 62
  256
 10
1362.023323055506
 20
-432.0158253385677
 30
0
  0
VERTEX
  5
1A2
  8
LAYER 1
  6
BYLAYER
 62
  256
 10
1362.158322126242
 20
-434.1132453837737
 30
0
  0
VERTEX
  5
1A3
  8
LAYER 1
  6
BYLAYER
 62
  256
 10
1362.183042585578
 20
-434.4973160788884
 30
0
  0
VERTEX
  5
1A4
  8
LAYER 1
  6
BYLAYER
 62
  256
 10
1362.179943877551
 20
-434.5176560163836
 30
0
  0
VERTEX
  5
1A5
  8
LAYER 1
  6
BYLAYER
 62
  256
 10
1362.149759117109
 20
-434.7017922671107
 30
0
  0
VERTEX
  5
1A6
  8
LAYER 1
  6
BYLAYER
 62
  256
 10
1362.060388332957
 20
-435.2469813253482
 30
0
  0
VERTEX
  5
1A7
  8
LAYER 1
  6
BYLAYER
 62
  256
 10
1361.879642635006
 20
-436.3495852443037
 30
0
  0
VERTEX
  5
1A8
  8
LAYER 1
  6
BYLAYER
 62
  256
 10
1361.575333133168
 20
-438.2059660771845
 30
0
  0
VERTEX
  5
1A9
  8
LAYER 1
  6
BYLAYER
 62
  256
 10
1361.115270937355
 20
-441.0124858771985
 30
0
  0
VERTEX
  5
1AA
  8
LAYER 1
  6
BYLAYER
 62
  256
 10
1360.467267157478
 20
-444.9655066975527
 30
0
  0
VERTEX
  5
1AB
  8
LAYER 1
  6
BYLAYER
 62
  256
 10
1359.599132903449
 20
-450.2613905914549
 30
0
  0
VERTEX
  5
1AC
  8
LAYER 1
  6
BYLAYER
 62
  256
 10
1358.478658051731
 20
-457.0964213261299
 30
0
  0
VERTEX
  5
1AD
  8
LAYER 1
  6
BYLAYER
 62
  256
 10
1357.042807800218
 20
-465.553234617973
 30
0
  0
VERTEX
  5
1AE
  8
LAYER 1
  6
BYLAYER
 62
  256
 10
1355.136086680316
 20
-475.3735713220653
 30
0
  0
VERTEX
  5
1AF
  8
LAYER 1
  6
BYLAYER
 62
  256
 10
1352.585735641846
 20
-486.2355228901857
 30
0
  0
VERTEX
  5
1B0
  8
LAYER 1
  6
BYLAYER
 62
  256
 10
1349.218995634626
 20
-497.8171807741135
 30
0
  0
VERTEX
  5
1B1
  8
LAYER 1
  6
BYLAYER
 62
  256
 10
1344.863107608477
 20
-509.7966364256275
 30
0
  0
VERTEX
  5
1B2
  8
LAYER 1
  6
BYLAYER
 62
  256
 10
1339.345312513218
 20
-521.8519812965069
 30
0
  0
VERTEX
  5
1B3
  8
LAYER 1
  6
BYLAYER
 62
  256
 10
1332.492851298668
 20
-533.6613068385309
 30
0
  0
VERTEX
  5
1B4
  8
LAYER 1
  6
BYLAYER
 62
  256
 10
1324.132964914647
 20
-544.9027045034786
 30
0
  0
VERTEX
  5
1B5
  8
LAYER 1
  6
BYLAYER
 62
  256
 10
1314.095788766486
 20
-555.2575727169484
 30
0
  0
VERTEX
  5
1B6
  8
LAYER 1
  6
BYLAYER
 62
  256
 10
1302.360995704104
 20
-564.5781594520348
 30
0
  0
VERTEX
  5
1B7
  8
LAYER 1
  6
BYLAYER
 62
  256
 10
1289.127138999378
 20
-572.9667879800262
 30
0
  0
VERTEX
  5
1B8
  8
LAYER 1
  6
BYLAYER
 62
  256
 10
1274.610169102313
 20
-580.545658199225
 30
0
  0
VERTEX
  5
1B9
  8
LAYER 1
  6
BYLAYER
 62
  256
 10
1259.026036462912
 20
-587.4369700079336
 30
0
  0
VERTEX
  5
1BA
  8
LAYER 1
  6
BYLAYER
 62
  256
 10
1242.590691531179
 20
-593.7629233044544
 30
0
  0
VERTEX
  5
1BB
  8
LAYER 1
  6
BYLAYER
 62
  256
 10
1225.520084757117
 20
-599.6457179870894
 30
0
  0
VERTEX
  5
1BC
  8
LAYER 1
  6
BYLAYER
 62
  256
 10
1208.030166590731
 20
-605.207553954141
 30
0
  0
VERTEX
  5
1BD
  8
LAYER 1
  6
BYLAYER
 62
  256
 10
1190.336887482024
 20
-610.5706311039118
 30
0
  0
VERTEX
  5
1BE
  8
LAYER 1
  6
BYLAYER
 62
  256
 10
1172.64329420151
 20
-615.849402502936
 30
0
  0
VERTEX
  5
1BF
  8
LAYER 1
  6
BYLAYER
 62
  256
 10
1154.968888602697
 20
-621.0481284936479
 30
0
  0
VERTEX
  5
1C0
  8
LAYER 1
  6
BYLAYER
 62
  256
 10
1137.196601229489
 20
-626.0890776919637
 30
0
  0
VERTEX
  5
1C1
  8
LAYER 1
  6
BYLAYER
 62
  256
 10
1119.206111778997
 20
-630.8925670407714
 30
0
  0
VERTEX
  5
1C2
  8
LAYER 1
  6
BYLAYER
 62
  256
 10
1100.877099948332
 20
-635.37891348296
 30
0
  0
VERTEX
  5
1C3
  8
LAYER 1
  6
BYLAYER
 62
  256
 10
1082.089245434604
 20
-639.4684339614174
 30
0
  0
VERTEX
  5
1C4
  8
LAYER 1
  6
BYLAYER
 62
  256
 10
1062.722227934924
 20
-643.0814454190323
 30
0
  0
VERTEX
  5
1C5
  8
LAYER 1
  6
BYLAYER
 62
  256
 10
1042.655727146404
 20
-646.1382647986933
 30
0
  0
VERTEX
  5
1C6
  8
LAYER 1
  6
BYLAYER
 62
  256
 10
1021.769422766153
 20
-648.5592090432885
 30
0
  0
VERTEX
  5
1C7
  8
LAYER 1
  6
BYLAYER
 62
  256
 10
999.9636740309471
 20
-650.2916108319007
 30
0
  0
VERTEX
  5
1C8
  8
LAYER 1
  6
BYLAYER
 62
  256
 10
977.2611124341339
 20
-651.4425392343177
 30
0
  0
VERTEX
  5
1C9
  8
LAYER 1
  6
BYLAYER
 62
  256
 10
953.7291462460238
 20
-652.1775596705203
 30
0
  0
VERTEX
  5
1CA
  8
LAYER 1
  6
BYLAYER
 62
  256
 10
929.4352509772126
 20
-652.6623254031522
 30
0
  0
VERTEX
  5
1CB
  8
LAYER 1
  6
BYLAYER
 62
  256
 10
904.4469021382971
 20
-653.0624896948567
 30
0
  0
VERTEX
  5
1CC
  8
LAYER 1
  6
BYLAYER
 62
  256
 10
878.8315752398721
 20
-653.5437058082764
 30
0
  0
VERTEX
  5
1CD
  8
LAYER 1
  6
BYLAYER
 62
  256
 10
852.6567457925341
 20
-654.2716270060548
 30
0
  0
VERTEX
  5
1CE
  8
LAYER 1
  6
BYLAYER
 62
  256
 10
825.9898893068787
 20
-655.4119065508349
 30
0
  0
VERTEX
  5
1CF
  8
LAYER 1
  6
BYLAYER
 62
  256
 10
798.8984721624237
 20
-657.1301088097339
 30
0
  0
VERTEX
  5
1D0
  8
LAYER 1
  6
BYLAYER
 62
  256
 10
771.4438801538743
 20
-659.5326006742046
 30
0
  0
VERTEX
  5
1D1
  8
LAYER 1
  6
BYLAYER
 62
  256
 10
743.6708947806575
 20
-662.5640980767927
 30
0
  0
VERTEX
  5
1D2
  8
LAYER 1
  6
BYLAYER
 62
  256
 10
715.6214893075909
 20
-666.1419774086781
 30
0
  0
VERTEX
  5
1D3
  8
LAYER 1
  6
BYLAYER
 62
  256
 10
687.3376369994908
 20
-670.1836150610399
 30
0
  0
VERTEX
  5
1D4
  8
LAYER 1
  6
BYLAYER
 62
  256
 10
658.8613111211745
 20
-674.6063874250575
 30
0
  0
VERTEX
  5
1D5
  8
LAYER 1
  6
BYLAYER
 62
  256
 10
630.2344849374591
 20
-679.3276708919107
 30
0
  0
VERTEX
  5
1D6
  8
LAYER 1
  6
BYLAYER
 62
  256
 10
601.4991317131612
 20
-684.2648418527788
 30
0
  0
VERTEX
  5
1D7
  8
LAYER 1
  6
BYLAYER
 62
  256
 10
572.6972247130981
 20
-689.3352766988412
 30
0
  0
VERTEX
  5
1D8
  8
LAYER 1
  6
BYLAYER
 62
  256
 10
543.8657426640306
 20
-694.4566371076804
 30
0
  0
VERTEX
  5
1D9
  8
LAYER 1
  6
BYLAYER
 62
  256
 10
514.8318387775747
 20
-699.5585699226386
 30
0
  0
VERTEX
  5
1DA
  8
LAYER 1
  6
BYLAYER
 62
  256
 10
485.1406714095076
 20
-704.5868294422831
 30
0
  0
VERTEX
  5
1DB
  8
LAYER 1
  6
BYLAYER
 62
  256
 10
454.3175739523392
 20
-709.48830236069
 30
0
  0
VERTEX
  5
1DC
  8
LAYER 1
  6
BYLAYER
 62
  256
 10
421.8878797985796
 20
-714.2098753719359
 30
0
  0
VERTEX
  5
1DD
  8
LAYER 1
  6
BYLAYER
 62
  256
 10
387.3769223407388
 20
-718.6984351700968
 30
0
  0
VERTEX
  5
1DE
  8
LAYER 1
  6
BYLAYER
 62
  256
 10
350.3100349713267
 20
-722.9008684492491
 30
0
  0
VERTEX
  5
1DF
  8
LAYER 1
  6
BYLAYER
 62
  256
 10
310.2125510828535
 20
-726.7640619034685
 30
0
  0
VERTEX
  5
1E0
  8
LAYER 1
  6
BYLAYER
 62
  256
 10
266.6098040678289
 20
-730.2349022268318
 30
0
  0
VERTEX
  5
1E1
  8
LAYER 1
  6
BYLAYER
 62
  256
 10
219.0903443254072
 20
-733.2607802689989
 30
0
  0
VERTEX
  5
1E2
  8
LAYER 1
  6
BYLAYER
 62
  256
 10
168.038079121709
 20
-735.795429850091
 30
0
  0
VERTEX
  5
1E3
  8
LAYER 1
  6
BYLAYER
 62
  256
 10
114.3802975034636
 20
-737.7969182595518
 30
0
  0
VERTEX
  5
1E4
  8
LAYER 1
  6
BYLAYER
 62
  256
 10
59.05480624688099
 20
-739.2233966657099
 30
0
  0
VERTEX
  5
1E5
  8
LAYER 1
  6
BYLAYER
 62
  256
 10
2.999412128170901
 20
-740.0330162368946
 30
0
  0
VERTEX
  5
1E6
  8
LAYER 1
  6
BYLAYER
 62
  256
 10
-52.84807807645674
 20
-740.1839281414343
 30
0
  0
VERTEX
  5
1E7
  8
LAYER 1
  6
BYLAYER
 62
  256
 10
-107.549857590792
 20
-739.6342835476581
 30
0
  0
VERTEX
  5
1E8
  8
LAYER 1
  6
BYLAYER
 62
  256
 10
-160.1681196386253
 20
-738.3422336238948
 30
0
  0
VERTEX
  5
1E9
  8
LAYER 1
  6
BYLAYER
 62
  256
 10
-209.7650574437465
 20
-736.2659295384731
 30
0
  0
VERTEX
  5
1EA
  8
LAYER 1
  6
BYLAYER
 62
  256
 10
-255.5749322071742
 20
-733.380324370799
 30
0
  0
VERTEX
  5
1EB
  8
LAYER 1
  6
BYLAYER
 62
  256
 10
-297.7535705522439
 20
-729.7503592417868
 30
0
  0
VERTEX
  5
1EC
  8
LAYER 1
  6
BYLAYER
 62
  256
 10
-336.7640319938473
 20
-725.4709756234162
 30
0
  0
VERTEX
  5
1ED
  8
LAYER 1
  6
BYLAYER
 62
  256
 10
-373.0695876829628
 20
-720.6371356532812
 30
0
  0
VERTEX
  5
1EE
  8
LAYER 1
  6
BYLAYER
 62
  256
 10
-407.1335087705689
 20
-715.3438014689774
 30
0
  0
VERTEX
  5
1EF
  8
LAYER 1
  6
BYLAYER
 62
  256
 10
-439.4190664076445
 20
-709.6859352080995
 30
0
  0
VERTEX
  5
1F0
  8
LAYER 1
  6
BYLAYER
 62
  256
 10
-470.389531745168
 20
-703.7584990082427
 30
0
  0
VERTEX
  5
1F1
  8
LAYER 1
  6
BYLAYER
 62
  256
 10
-500.5081759341182
 20
-697.6564550070016
 30
0
  0
VERTEX
  5
1F2
  8
LAYER 1
  6
BYLAYER
 62
  256
 10
-530.2379093849324
 20
-691.4747680624328
 30
0
  0
VERTEX
  5
1F3
  8
LAYER 1
  6
BYLAYER
 62
  256
 10
-559.9084397848411
 20
-685.3094075576111
 30
0
  0
VERTEX
  5
1F4
  8
LAYER 1
  6
BYLAYER
 62
  256
 10
-589.5179138611413
 20
-679.258843284547
 30
0
  0
VERTEX
  5
1F5
  8
LAYER 1
  6
BYLAYER
 62
  256
 10
-619.0137553351698
 20
-673.4219275539197
 30
0
  0
VERTEX
  5
1F6
  8
LAYER 1
  6
BYLAYER
 62
  256
 10
-648.3433879282641
 20
-667.8975126764095
 30
0
  0
VERTEX
  5
1F7
  8
LAYER 1
  6
BYLAYER
 62
  256
 10
-677.4542353617612
 20
-662.7844509626962
 30
0
  0
VERTEX
  5
1F8
  8
LAYER 1
  6
BYLAYER
 62
  256
 10
-706.2937213569979
 20
-658.1815947234594
 30
0
  0
VERTEX
  5
1F9
  8
LAYER 1
  6
BYLAYER
 62
  256
 10
-734.8092696353117
 20
-654.1877962693791
 30
0
  0
VERTEX
  5
1FA
  8
LAYER 1
  6
BYLAYER
 62
  256
 10
-762.9483039180396
 20
-650.9019079111354
 30
0
  0
VERTEX
  5
1FB
  8
LAYER 1
  6
BYLAYER
 62
  256
 10
-790.6580912806155
 20
-648.4194468345078
 30
0
  0
VERTEX
  5
1FC
  8
LAYER 1
  6
BYLAYER
 62
  256
 10
-817.8804517705219
 20
-646.7199583536989
 30
0
  0
VERTEX
  5
1FD
  8
LAYER 1
  6
BYLAYER
 62
  256
 10
-844.5504803563967
 20
-645.6398051176008
 30
0
  0
VERTEX
  5
1FE
  8
LAYER 1
  6
BYLAYER
 62
  256
 10
-870.6028561858004
 20
-645.0064965896636
 30
0
  0
VERTEX
  5
1FF
  8
LAYER 1
  6
BYLAYER
 62
  256
 10
-895.9722584062936
 20
-644.6475422333373
 30
0
  0
VERTEX
  5
200
  8
LAYER 1
  6
BYLAYER
 62
  256
 10
-920.5933661654368
 20
-644.3904515120716
 30
0
  0
VERTEX
  5
201
  8
LAYER 1
  6
BYLAYER
 62
  256
 10
-944.4008586107907
 20
-644.0627338893169
 30
0
  0
VERTEX
  5
202
  8
LAYER 1
  6
BYLAYER
 62
  256
 10
-967.3294148899156
 20
-643.4918988285229
 30
0
  0
VERTEX
  5
203
  8
LAYER 1
  6
BYLAYER
 62
  256
 10
-989.3137141503722
 20
-642.5054557931397
 30
0
  0
VERTEX
  5
204
  8
LAYER 1
  6
BYLAYER
 62
  256
 10
-1010.297928237435
 20
-640.9436596252108
 30
0
  0
VERTEX
  5
205
  8
LAYER 1
  6
BYLAYER
 62
  256
 10
-1030.332384027806
 20
-638.789294309276
 30
0
  0
VERTEX
  5
206
  8
LAYER 1
  6
BYLAYER
 62
  256
 10
-1049.533953633939
 20
-636.1144908467923
 30
0
  0
VERTEX
  5
207
  8
LAYER 1
  6
BYLAYER
 62
  256
 10
-1068.020534186935
 20
-632.992756481371
 30
0
  0
VERTEX
  5
208
  8
LAYER 1
  6
BYLAYER
 62
  256
 10
-1085.910022817896
 20
-629.4975984566236
 30
0
  0
VERTEX
  5
209
  8
LAYER 1
  6
BYLAYER
 62
  256
 10
-1103.320316657925
 20
-625.7025240161612
 30
0
  0
VERTEX
  5
20A
  8
LAYER 1
  6
BYLAYER
 62
  256
 10
-1120.369312838125
 20
-621.6810404035955
 30
0
  0
VERTEX
  5
20B
  8
LAYER 1
  6
BYLAYER
 62
  256
 10
-1137.174908489597
 20
-617.5066548625379
 30
0
  0
VERTEX
  5
20C
  8
LAYER 1
  6
BYLAYER
 62
  256
 10
-1153.855000743444
 20
-613.2528746365998
 30
0
  0
VERTEX
  5
20D
  8
LAYER 1
  6
BYLAYER
 62
  256
 10
-1170.488835225013
 20
-608.9620026742755
 30
0
  0
VERTEX
  5
20E
  8
LAYER 1
  6
BYLAYER
 62
  256
 10
-1186.967948389625
 20
-604.5247997726455
 30
0
  0
VERTEX
  5
20F
  8
LAYER 1
  6
BYLAYER
 62
  256
 10
-1203.126974715722
 20
-599.7860883870716
 30
0
  0
VERTEX
  5
210
  8
LAYER 1
  6
BYLAYER
 62
  256
 10
-1218.800536003403
 20
-594.5906807373849
 30
0
  0
VERTEX
  5
211
  8
LAYER 1
  6
BYLAYER
 62
  256
 10
-1233.823254052768
 20
-588.7833890434164
 30
0
  0
VERTEX
  5
212
  8
LAYER 1
  6
BYLAYER
 62
  256
 10
-1248.029750663918
 20
-582.2090255249973
 30
0
  0
VERTEX
  5
213
  8
LAYER 1
  6
BYLAYER
 62
  256
 10
-1261.254647636953
 20
-574.7124024019586
 30
0
  0
VERTEX
  5
214
  8
LAYER 1
  6
BYLAYER
 62
  256
 10
-1273.332566771973
 20
-566.1383318941314
 30
0
  0
VERTEX
  5
215
  8
LAYER 1
  6
BYLAYER
 62
  256
 10
-1284.098466027126
 20
-556.332256719493
 30
0
  0
VERTEX
  5
216
  8
LAYER 1
  6
BYLAYER
 62
  256
 10
-1293.464789346544
 20
-545.2849523376065
 30
0
  0
VERTEX
  5
217
  8
LAYER 1
  6
BYLAYER
 62
  256
 10
-1301.520021663153
 20
-533.3173767462932
 30
0
  0
VERTEX
  5
218
  8
LAYER 1
  6
BYLAYER
 62
  256
 10
-1308.376964898189
 20
-520.7960968948959
 30
0
  0
VERTEX
  5
219
  8
LAYER 1
  6
BYLAYER
 62
  256
 10
-1314.148420972891
 20
-508.0876797327563
 30
0
  0
VERTEX
  5
21A
  8
LAYER 1
  6
BYLAYER
 62
  256
 10
-1318.947191808495
 20
-495.558692209217
 30
0
  0
VERTEX
  5
21B
  8
LAYER 1
  6
BYLAYER
 62
  256
 10
-1322.886079326237
 20
-483.5757012736202
 30
0
  0
VERTEX
  5
21C
  8
LAYER 1
  6
BYLAYER
 62
  256
 10
-1326.077885447355
 20
-472.5052738753081
 30
0
  0
VERTEX
  5
21D
  8
LAYER 1
  6
BYLAYER
 62
  256
 10
-1328.635412093085
 20
-462.7139769636232
 30
0
  0
VERTEX
  5
21E
  8
LAYER 1
  6
BYLAYER
 62
  256
 10
-1330.670536637189
 20
-454.5595072209707
 30
0
  0
VERTEX
  5
21F
  8
LAYER 1
  6
BYLAYER
 62
  256
 10
-1332.268131513305
 20
-448.1404713061702
 30
0
  0
VERTEX
  5
220
  8
LAYER 1
  6
BYLAYER
 62
  256
 10
-1333.48242835788
 20
-443.2615028185534
 30
0
  0
VERTEX
  5
221
  8
LAYER 1
  6
BYLAYER
 62
  256
 10
-1334.366003449575
 20
-439.7113535712058
 30
0
  0
VERTEX
  5
222
  8
LAYER 1
  6
BYLAYER
 62
  256
 10
-1334.971433067053
 20
-437.2787753772125
 30
0
  0
VERTEX
  5
223
  8
LAYER 1
  6
BYLAYER
 62
  256
 10
-1335.351293488977
 20
-435.7525200496594
 30
0
  0
VERTEX
  5
224
  8
LAYER 1
  6
BYLAYER
 62
  256
 10
-1335.558160994011
 20
-434.9213394016315
 30
0
  0
VERTEX
  5
225
  8
LAYER 1
  6
BYLAYER
 62
  256
 10
-1335.644611860817
 20
-434.5739852462144
 30
0
  0
VERTEX
  5
226
  8
LAYER 1
  6
BYLAYER
 62
  256
 10
-1335.663222368058
 20
-434.4992093964933
 30
0
  0
VERTEX
  5
227
  8
LAYER 1
  6
BYLAYER
 62
  256
 10
-1335.657939802839
 20
-434.4104583727419
 30
0
  0
VERTEX
  5
228
  8
LAYER 1
  6
BYLAYER
 62
  256
 10
-1335.586579561986
 20
-433.2695048554083
 30
0
  0
VERTEX
  5
229
  8
LAYER 1
  6
BYLAYER
 62
  256
 10
-1335.357455415701
 20
-429.6061203504394
 30
0
  0
VERTEX
  5
22A
  8
LAYER 1
  6
BYLAYER
 62
  256
 10
-1334.878290362694
 20
-421.9449206952572
 30
0
  0
VERTEX
  5
22B
  8
LAYER 1
  6
BYLAYER
 62
  256
 10
-1334.056807401673
 20
-408.8105217272833
 30
0
  0
VERTEX
  5
22C
  8
LAYER 1
  6
BYLAYER
 62
  256
 10
-1332.800729531349
 20
-388.7275392839395
 30
0
  0
VERTEX
  5
22D
  8
LAYER 1
  6
BYLAYER
 62
  256
 10
-1331.01777975043
 20
-360.2205892026475
 30
0
  0
VERTEX
  5
22E
  8
LAYER 1
  6
BYLAYER
 62
  256
 10
-1328.615681057626
 20
-321.8142873208291
 30
0
  0
VERTEX
  5
22F
  8
LAYER 1
  6
BYLAYER
 62
  256
 10
-1325.502156451647
 20
-272.0332494759059
 30
0
  0
VERTEX
  5
230
  8
LAYER 1
  6
BYLAYER
 62
  256
 10
-1321.626744899697
 20
-210.0706721570022
 30
0
  0
VERTEX
  5
231
  8
LAYER 1
  6
BYLAYER
 62
  256
 10
-1317.123255952219
 20
-138.0659886873156
 30
0
  0
VERTEX
  5
232
  8
LAYER 1
  6
BYLAYER
 62
  256
 10
-1312.176242063054
 20
-58.96994262975583
 30
0
  0
VERTEX
  5
233
  8
LAYER 1
  6
BYLAYER
 62
  256
 10
-1306.970257234784
 20
24.26669769052037
 30
0
  0
VERTEX
  5
234
  8
LAYER 1
  6
BYLAYER
 62
  256
 10
-1301.68985546999
 20
108.6931639483565
 30
0
  0
VERTEX
  5
235
  8
LAYER 1
  6
BYLAYER
 62
  256
 10
-1296.519590771252
 20
191.3586878185962
 30
0
  0
VERTEX
  5
236
  8
LAYER 1
  6
BYLAYER
 62
  256
 10
-1291.644017141151
 20
269.3125009760827
 30
0
  0
VERTEX
  5
237
  8
LAYER 1
  6
BYLAYER
 62
  256
 10
-1287.24768858227
 20
339.6038350956595
 30
0
  0
VERTEX
  5
238
  8
LAYER 1
  6
BYLAYER
 62
  256
 10
-1283.514627879514
 20
399.2904153026717
 30
0
  0
VERTEX
  5
239
  8
LAYER 1
  6
BYLAYER
 62
  256
 10
-1280.546000250589
 20
446.7547469026883
 30
0
  0
VERTEX
  5
23A
  8
LAYER 1
  6
BYLAYER
 62
  256
 10
-1278.270938470073
 20
483.1299007646185
 30
0
  0
VERTEX
  5
23B
  8
LAYER 1
  6
BYLAYER
 62
  256
 10
-1276.597165536676
 20
509.8912610510406
 30
0
  0
VERTEX
  5
23C
  8
LAYER 1
  6
BYLAYER
 62
  256
 10
-1275.432404449107
 20
528.5142119245328
 30
0
  0
VERTEX
  5
23D
  8
LAYER 1
  6
BYLAYER
 62
  256
 10
-1274.684378206076
 20
540.4741375476734
 30
0
  0
VERTEX
  5
23E
  8
LAYER 1
  6
BYLAYER
 62
  256
 10
-1274.260809806292
 20
547.2464220830407
 30
0
  0
VERTEX
  5
23F
  8
LAYER 1
  6
BYLAYER
 62
  256
 10
-1274.069422248465
 20
550.3064496932128
 30
0
  0
VERTEX
  5
240
  8
LAYER 1
  6
BYLAYER
 62
  256
 10
-1274.017938531304
 20
551.129604540768
 30
0
  0
VERTEX
  5
241
  8
LAYER 1
  6
BYLAYER
 62
  256
 10
-1274.015823985539
 20
551.1634132611301
 30
0
  0
VERTEX
  5
242
  8
LAYER 1
  6
BYLAYER
 62
  256
 10
-1274.015823985539
 20
551.1634132611302
 30
0
  0
VERTEX
  5
243
  8
LAYER 1
  6
BYLAYER
 62
  256
 10
-1274.015823985539
 20
551.1634132611302
 30
0
  0
VERTEX
  5
244
  8
LAYER 1
  6
BYLAYER
 62
  256
 10
-1274.015823985539
 20
551.1634132611302
 30
0
  0
VERTEX
  5
245
  8
LAYER 1
  6
BYLAYER
 62
  256
 10
-1274.015823985539
 20
551.1634132611304
 30
0
  0
VERTEX
  5
246
  8
LAYER 1
  6
BYLAYER
 62
  256
 10
-1274.015823985539
 20
551.1634132611302
 30
0
  0
VERTEX
  5
247
  8
LAYER 1
  6
BYLAYER
 62
  256
 10
-1274.015823985539
 20
551.1634132611304
 30
0
  0
VERTEX
  5
248
  8
LAYER 1
  6
BYLAYER
 62
  256
 10
-1274.015823985539
 20
551.1634132611302
 30
0
  0
VERTEX
  5
249
  8
LAYER 1
  6
BYLAYER
 62
  256
 10
-1274.015823985539
 20
551.1634132611302
 30
0
  0
VERTEX
  5
24A
  8
LAYER 1
  6
BYLAYER
 62
  256
 10
-1274.014116612458
 20
551.1814079926676
 30
0
  0
VERTEX
  5
24B
  8
LAYER 1
  6
BYLAYER
 62
  256
 10
-1273.993727347516
 20
551.3962991333086
 30
0
  0
VERTEX
  5
24C
  8
LAYER 1
  6
BYLAYER
 62
  256
 10
-1273.929644936195
 20
552.0716909388943
 30
0
  0
VERTEX
  5
24D
  8
LAYER 1
  6
BYLAYER
 62
  256
 10
-1273.796786275944
 20
553.4719449022631
 30
0
  0
VERTEX
  5
24E
  8
LAYER 1
  6
BYLAYER
 62
  256
 10
-1273.570068264211
 20
555.8614225162532
 30
0
  0
VERTEX
  5
24F
  8
LAYER 1
  6
BYLAYER
 62
  256
 10
-1273.224407798447
 20
559.5044852737033
 30
0
  0
VERTEX
  5
250
  8
LAYER 1
  6
BYLAYER
 62
  256
 10
-1272.7347217761
 20
564.6654946674514
 30
0
  0
VERTEX
  5
251
  8
LAYER 1
  6
BYLAYER
 62
  256
 10
-1272.07592709462
 20
571.6088121903364
 30
0
  0
SEQEND
  5
252
  8
LAYER 1
  6
BYLAYER
 62
  256
  0
ENDSEC
  0
EOF
