G04 #@! TF.GenerationSoftware,KiCad,Pcbnew,(5.0.0)*
G04 #@! TF.CreationDate,2018-10-11T09:42:50+01:00*
G04 #@! TF.ProjectId,scroll,7363726F6C6C2E6B696361645F706362,rev?*
G04 #@! TF.SameCoordinates,Original*
G04 #@! TF.FileFunction,Copper,L1,Top,Signal*
G04 #@! TF.FilePolarity,Positive*
%FSLAX46Y46*%
G04 Gerber Fmt 4.6, Leading zero omitted, Abs format (unit mm)*
G04 Created by KiCad (PCBNEW (5.0.0)) date 10/11/18 09:42:50*
%MOMM*%
%LPD*%
G01*
G04 APERTURE LIST*
G04 #@! TA.AperFunction,ComponentPad*
%ADD10C,1.350000*%
G04 #@! TD*
G04 #@! TA.AperFunction,ComponentPad*
%ADD11R,1.350000X1.350000*%
G04 #@! TD*
G04 #@! TA.AperFunction,ComponentPad*
%ADD12O,1.600000X1.600000*%
G04 #@! TD*
G04 #@! TA.AperFunction,ComponentPad*
%ADD13R,1.600000X1.600000*%
G04 #@! TD*
G04 #@! TA.AperFunction,Conductor*
%ADD14C,0.250000*%
G04 #@! TD*
G04 #@! TA.AperFunction,Conductor*
%ADD15C,0.254000*%
G04 #@! TD*
G04 APERTURE END LIST*
D10*
G04 #@! TO.P,J1,6*
G04 #@! TO.N,GND*
X125500000Y-90750000D03*
G04 #@! TO.P,J1,4*
G04 #@! TO.N,MOSI*
X125500000Y-92750000D03*
G04 #@! TO.P,J1,2*
G04 #@! TO.N,+3V3*
X125500000Y-94750000D03*
G04 #@! TO.P,J1,5*
G04 #@! TO.N,RESET*
X127500000Y-90750000D03*
G04 #@! TO.P,J1,3*
G04 #@! TO.N,SCK*
X127500000Y-92750000D03*
D11*
G04 #@! TO.P,J1,1*
G04 #@! TO.N,MISO*
X127500000Y-94750000D03*
G04 #@! TD*
D12*
G04 #@! TO.P,U1,8*
G04 #@! TO.N,+3V3*
X142995001Y-88575001D03*
G04 #@! TO.P,U1,4*
G04 #@! TO.N,GND*
X135375001Y-96195001D03*
G04 #@! TO.P,U1,7*
G04 #@! TO.N,SCK*
X142995001Y-91115001D03*
G04 #@! TO.P,U1,3*
G04 #@! TO.N,Net-(U1-Pad3)*
X135375001Y-93655001D03*
G04 #@! TO.P,U1,6*
G04 #@! TO.N,MISO*
X142995001Y-93655001D03*
G04 #@! TO.P,U1,2*
G04 #@! TO.N,Net-(U1-Pad2)*
X135375001Y-91115001D03*
G04 #@! TO.P,U1,5*
G04 #@! TO.N,MOSI*
X142995001Y-96195001D03*
D13*
G04 #@! TO.P,U1,1*
G04 #@! TO.N,RESET*
X135375001Y-88575001D03*
G04 #@! TD*
D14*
G04 #@! TO.N,MISO*
X142195002Y-92855002D02*
X142995001Y-93655001D01*
X141580002Y-92240002D02*
X142195002Y-92855002D01*
X130934998Y-92240002D02*
X141580002Y-92240002D01*
X128425000Y-94750000D02*
X130934998Y-92240002D01*
X127500000Y-94750000D02*
X128425000Y-94750000D01*
G04 #@! TO.N,SCK*
X142195002Y-90315002D02*
X142995001Y-91115001D01*
X141870000Y-89990000D02*
X142195002Y-90315002D01*
X130260000Y-89990000D02*
X141870000Y-89990000D01*
X127500000Y-92750000D02*
X130260000Y-89990000D01*
G04 #@! TO.N,MOSI*
X124499999Y-95230001D02*
X125269998Y-96000000D01*
X125500000Y-92750000D02*
X124499999Y-93750001D01*
X124499999Y-93750001D02*
X124499999Y-95230001D01*
X142195002Y-95395002D02*
X142995001Y-96195001D01*
X141870000Y-95070000D02*
X142195002Y-95395002D01*
X134835000Y-95070000D02*
X141870000Y-95070000D01*
X133905000Y-96000000D02*
X134835000Y-95070000D01*
X125269998Y-96000000D02*
X133905000Y-96000000D01*
G04 #@! TO.N,RESET*
X129674999Y-88575001D02*
X135375001Y-88575001D01*
X127500000Y-90750000D02*
X129674999Y-88575001D01*
G04 #@! TD*
D15*
G04 #@! TO.N,GND*
G36*
X144290000Y-87294092D02*
X144290000Y-87930173D01*
X144029578Y-87540424D01*
X143554910Y-87223261D01*
X143136334Y-87140001D01*
X142853668Y-87140001D01*
X142435092Y-87223261D01*
X141960424Y-87540424D01*
X141643261Y-88015092D01*
X141531888Y-88575001D01*
X141643261Y-89134910D01*
X141706798Y-89230000D01*
X136822441Y-89230000D01*
X136822441Y-87775001D01*
X136773158Y-87527236D01*
X136632810Y-87317192D01*
X136422766Y-87176844D01*
X136175001Y-87127561D01*
X134575001Y-87127561D01*
X134327236Y-87176844D01*
X134117192Y-87317192D01*
X133976844Y-87527236D01*
X133927561Y-87775001D01*
X133927561Y-87815001D01*
X129749845Y-87815001D01*
X129674998Y-87800113D01*
X129600151Y-87815001D01*
X129600147Y-87815001D01*
X129378462Y-87859097D01*
X129127070Y-88027072D01*
X129084670Y-88090528D01*
X127735199Y-89440000D01*
X127239425Y-89440000D01*
X126757945Y-89639436D01*
X126389436Y-90007945D01*
X126366650Y-90062955D01*
X125679605Y-90750000D01*
X126366650Y-91437045D01*
X126389436Y-91492055D01*
X126647381Y-91750000D01*
X126500000Y-91897381D01*
X126242055Y-91639436D01*
X126187045Y-91616650D01*
X125500000Y-90929605D01*
X124812955Y-91616650D01*
X124757945Y-91639436D01*
X124389436Y-92007945D01*
X124190000Y-92489425D01*
X124190000Y-92985199D01*
X124015529Y-93159670D01*
X123952070Y-93202072D01*
X123784095Y-93453465D01*
X123739999Y-93675150D01*
X123739999Y-93675154D01*
X123725111Y-93750001D01*
X123739999Y-93824848D01*
X123740000Y-95155150D01*
X123725111Y-95230001D01*
X123784096Y-95526538D01*
X123907034Y-95710527D01*
X123952071Y-95777930D01*
X124015527Y-95820330D01*
X124679669Y-96484473D01*
X124722069Y-96547929D01*
X124973461Y-96715904D01*
X125195146Y-96760000D01*
X125195150Y-96760000D01*
X125269997Y-96774888D01*
X125344844Y-96760000D01*
X133830153Y-96760000D01*
X133905000Y-96774888D01*
X133979847Y-96760000D01*
X133979852Y-96760000D01*
X134065489Y-96742966D01*
X134143960Y-96932424D01*
X134519867Y-97347390D01*
X135025960Y-97586915D01*
X135248001Y-97465630D01*
X135248001Y-96322001D01*
X135502001Y-96322001D01*
X135502001Y-97465630D01*
X135724042Y-97586915D01*
X136230135Y-97347390D01*
X136606042Y-96932424D01*
X136766905Y-96544040D01*
X136644916Y-96322001D01*
X135502001Y-96322001D01*
X135248001Y-96322001D01*
X135228001Y-96322001D01*
X135228001Y-96068001D01*
X135248001Y-96068001D01*
X135248001Y-96048001D01*
X135502001Y-96048001D01*
X135502001Y-96068001D01*
X136644916Y-96068001D01*
X136766905Y-95845962D01*
X136760294Y-95830000D01*
X141555199Y-95830000D01*
X141596313Y-95871114D01*
X141531888Y-96195001D01*
X141643261Y-96754910D01*
X141960424Y-97229578D01*
X142435092Y-97546741D01*
X142853668Y-97630001D01*
X143136334Y-97630001D01*
X143554910Y-97546741D01*
X144029578Y-97229578D01*
X144290001Y-96839828D01*
X144290001Y-97705908D01*
X143705910Y-98290000D01*
X123294092Y-98290000D01*
X122710000Y-97705910D01*
X122710000Y-90563100D01*
X124177478Y-90563100D01*
X124206625Y-91083434D01*
X124349672Y-91428781D01*
X124582853Y-91487542D01*
X125320395Y-90750000D01*
X124582853Y-90012458D01*
X124349672Y-90071219D01*
X124177478Y-90563100D01*
X122710000Y-90563100D01*
X122710000Y-89832853D01*
X124762458Y-89832853D01*
X125500000Y-90570395D01*
X126237542Y-89832853D01*
X126178781Y-89599672D01*
X125686900Y-89427478D01*
X125166566Y-89456625D01*
X124821219Y-89599672D01*
X124762458Y-89832853D01*
X122710000Y-89832853D01*
X122710000Y-87294090D01*
X123294092Y-86710000D01*
X143705910Y-86710000D01*
X144290000Y-87294092D01*
X144290000Y-87294092D01*
G37*
X144290000Y-87294092D02*
X144290000Y-87930173D01*
X144029578Y-87540424D01*
X143554910Y-87223261D01*
X143136334Y-87140001D01*
X142853668Y-87140001D01*
X142435092Y-87223261D01*
X141960424Y-87540424D01*
X141643261Y-88015092D01*
X141531888Y-88575001D01*
X141643261Y-89134910D01*
X141706798Y-89230000D01*
X136822441Y-89230000D01*
X136822441Y-87775001D01*
X136773158Y-87527236D01*
X136632810Y-87317192D01*
X136422766Y-87176844D01*
X136175001Y-87127561D01*
X134575001Y-87127561D01*
X134327236Y-87176844D01*
X134117192Y-87317192D01*
X133976844Y-87527236D01*
X133927561Y-87775001D01*
X133927561Y-87815001D01*
X129749845Y-87815001D01*
X129674998Y-87800113D01*
X129600151Y-87815001D01*
X129600147Y-87815001D01*
X129378462Y-87859097D01*
X129127070Y-88027072D01*
X129084670Y-88090528D01*
X127735199Y-89440000D01*
X127239425Y-89440000D01*
X126757945Y-89639436D01*
X126389436Y-90007945D01*
X126366650Y-90062955D01*
X125679605Y-90750000D01*
X126366650Y-91437045D01*
X126389436Y-91492055D01*
X126647381Y-91750000D01*
X126500000Y-91897381D01*
X126242055Y-91639436D01*
X126187045Y-91616650D01*
X125500000Y-90929605D01*
X124812955Y-91616650D01*
X124757945Y-91639436D01*
X124389436Y-92007945D01*
X124190000Y-92489425D01*
X124190000Y-92985199D01*
X124015529Y-93159670D01*
X123952070Y-93202072D01*
X123784095Y-93453465D01*
X123739999Y-93675150D01*
X123739999Y-93675154D01*
X123725111Y-93750001D01*
X123739999Y-93824848D01*
X123740000Y-95155150D01*
X123725111Y-95230001D01*
X123784096Y-95526538D01*
X123907034Y-95710527D01*
X123952071Y-95777930D01*
X124015527Y-95820330D01*
X124679669Y-96484473D01*
X124722069Y-96547929D01*
X124973461Y-96715904D01*
X125195146Y-96760000D01*
X125195150Y-96760000D01*
X125269997Y-96774888D01*
X125344844Y-96760000D01*
X133830153Y-96760000D01*
X133905000Y-96774888D01*
X133979847Y-96760000D01*
X133979852Y-96760000D01*
X134065489Y-96742966D01*
X134143960Y-96932424D01*
X134519867Y-97347390D01*
X135025960Y-97586915D01*
X135248001Y-97465630D01*
X135248001Y-96322001D01*
X135502001Y-96322001D01*
X135502001Y-97465630D01*
X135724042Y-97586915D01*
X136230135Y-97347390D01*
X136606042Y-96932424D01*
X136766905Y-96544040D01*
X136644916Y-96322001D01*
X135502001Y-96322001D01*
X135248001Y-96322001D01*
X135228001Y-96322001D01*
X135228001Y-96068001D01*
X135248001Y-96068001D01*
X135248001Y-96048001D01*
X135502001Y-96048001D01*
X135502001Y-96068001D01*
X136644916Y-96068001D01*
X136766905Y-95845962D01*
X136760294Y-95830000D01*
X141555199Y-95830000D01*
X141596313Y-95871114D01*
X141531888Y-96195001D01*
X141643261Y-96754910D01*
X141960424Y-97229578D01*
X142435092Y-97546741D01*
X142853668Y-97630001D01*
X143136334Y-97630001D01*
X143554910Y-97546741D01*
X144029578Y-97229578D01*
X144290001Y-96839828D01*
X144290001Y-97705908D01*
X143705910Y-98290000D01*
X123294092Y-98290000D01*
X122710000Y-97705910D01*
X122710000Y-90563100D01*
X124177478Y-90563100D01*
X124206625Y-91083434D01*
X124349672Y-91428781D01*
X124582853Y-91487542D01*
X125320395Y-90750000D01*
X124582853Y-90012458D01*
X124349672Y-90071219D01*
X124177478Y-90563100D01*
X122710000Y-90563100D01*
X122710000Y-89832853D01*
X124762458Y-89832853D01*
X125500000Y-90570395D01*
X126237542Y-89832853D01*
X126178781Y-89599672D01*
X125686900Y-89427478D01*
X125166566Y-89456625D01*
X124821219Y-89599672D01*
X124762458Y-89832853D01*
X122710000Y-89832853D01*
X122710000Y-87294090D01*
X123294092Y-86710000D01*
X143705910Y-86710000D01*
X144290000Y-87294092D01*
G04 #@! TD*
M02*
