G04 #@! TF.GenerationSoftware,KiCad,Pcbnew,(5.0.0)*
G04 #@! TF.CreationDate,2018-10-11T09:42:50+01:00*
G04 #@! TF.ProjectId,scroll,7363726F6C6C2E6B696361645F706362,rev?*
G04 #@! TF.SameCoordinates,Original*
G04 #@! TF.FileFunction,Legend,Top*
G04 #@! TF.FilePolarity,Positive*
%FSLAX46Y46*%
G04 Gerber Fmt 4.6, Leading zero omitted, Abs format (unit mm)*
G04 Created by KiCad (PCBNEW (5.0.0)) date 10/11/18 09:42:50*
%MOMM*%
%LPD*%
G01*
G04 APERTURE LIST*
%ADD10C,0.200000*%
%ADD11C,0.300000*%
%ADD12C,0.120000*%
G04 APERTURE END LIST*
D10*
X127242857Y-96861904D02*
X127242857Y-96061904D01*
X127509523Y-96633333D01*
X127776190Y-96061904D01*
X127776190Y-96861904D01*
X128157142Y-96861904D02*
X128157142Y-96061904D01*
X128500000Y-96823809D02*
X128614285Y-96861904D01*
X128804761Y-96861904D01*
X128880952Y-96823809D01*
X128919047Y-96785714D01*
X128957142Y-96709523D01*
X128957142Y-96633333D01*
X128919047Y-96557142D01*
X128880952Y-96519047D01*
X128804761Y-96480952D01*
X128652380Y-96442857D01*
X128576190Y-96404761D01*
X128538095Y-96366666D01*
X128500000Y-96290476D01*
X128500000Y-96214285D01*
X128538095Y-96138095D01*
X128576190Y-96100000D01*
X128652380Y-96061904D01*
X128842857Y-96061904D01*
X128957142Y-96100000D01*
X129452380Y-96061904D02*
X129604761Y-96061904D01*
X129680952Y-96100000D01*
X129757142Y-96176190D01*
X129795238Y-96328571D01*
X129795238Y-96595238D01*
X129757142Y-96747619D01*
X129680952Y-96823809D01*
X129604761Y-96861904D01*
X129452380Y-96861904D01*
X129376190Y-96823809D01*
X129300000Y-96747619D01*
X129261904Y-96595238D01*
X129261904Y-96328571D01*
X129300000Y-96176190D01*
X129376190Y-96100000D01*
X129452380Y-96061904D01*
D11*
X132107142Y-95500000D02*
X132178571Y-95285714D01*
X132178571Y-94928571D01*
X132107142Y-94785714D01*
X132035714Y-94714285D01*
X131892857Y-94642857D01*
X131750000Y-94642857D01*
X131607142Y-94714285D01*
X131535714Y-94785714D01*
X131464285Y-94928571D01*
X131392857Y-95214285D01*
X131321428Y-95357142D01*
X131250000Y-95428571D01*
X131107142Y-95500000D01*
X130964285Y-95500000D01*
X130821428Y-95428571D01*
X130750000Y-95357142D01*
X130678571Y-95214285D01*
X130678571Y-94857142D01*
X130750000Y-94642857D01*
X132107142Y-93357142D02*
X132178571Y-93500000D01*
X132178571Y-93785714D01*
X132107142Y-93928571D01*
X132035714Y-94000000D01*
X131892857Y-94071428D01*
X131464285Y-94071428D01*
X131321428Y-94000000D01*
X131250000Y-93928571D01*
X131178571Y-93785714D01*
X131178571Y-93500000D01*
X131250000Y-93357142D01*
X132178571Y-92714285D02*
X131178571Y-92714285D01*
X131464285Y-92714285D02*
X131321428Y-92642857D01*
X131250000Y-92571428D01*
X131178571Y-92428571D01*
X131178571Y-92285714D01*
X132178571Y-91571428D02*
X132107142Y-91714285D01*
X132035714Y-91785714D01*
X131892857Y-91857142D01*
X131464285Y-91857142D01*
X131321428Y-91785714D01*
X131250000Y-91714285D01*
X131178571Y-91571428D01*
X131178571Y-91357142D01*
X131250000Y-91214285D01*
X131321428Y-91142857D01*
X131464285Y-91071428D01*
X131892857Y-91071428D01*
X132035714Y-91142857D01*
X132107142Y-91214285D01*
X132178571Y-91357142D01*
X132178571Y-91571428D01*
X132178571Y-90214285D02*
X132107142Y-90357142D01*
X131964285Y-90428571D01*
X130678571Y-90428571D01*
X132178571Y-89428571D02*
X132107142Y-89571428D01*
X131964285Y-89642857D01*
X130678571Y-89642857D01*
D12*
G04 #@! TO.C,U1*
X141835001Y-87245001D02*
X140185001Y-87245001D01*
X141835001Y-97525001D02*
X141835001Y-87245001D01*
X136535001Y-97525001D02*
X141835001Y-97525001D01*
X136535001Y-87245001D02*
X136535001Y-97525001D01*
X138185001Y-87245001D02*
X136535001Y-87245001D01*
X140185001Y-87245001D02*
G75*
G02X138185001Y-87245001I-1000000J0D01*
G01*
G04 #@! TD*
M02*
