G04 #@! TF.GenerationSoftware,KiCad,Pcbnew,(5.0.0)*
G04 #@! TF.CreationDate,2018-10-11T09:42:50+01:00*
G04 #@! TF.ProjectId,scroll,7363726F6C6C2E6B696361645F706362,rev?*
G04 #@! TF.SameCoordinates,Original*
G04 #@! TF.FileFunction,Copper,L2,Bot,Signal*
G04 #@! TF.FilePolarity,Positive*
%FSLAX46Y46*%
G04 Gerber Fmt 4.6, Leading zero omitted, Abs format (unit mm)*
G04 Created by KiCad (PCBNEW (5.0.0)) date 10/11/18 09:42:50*
%MOMM*%
%LPD*%
G01*
G04 APERTURE LIST*
G04 #@! TA.AperFunction,ComponentPad*
%ADD10C,1.350000*%
G04 #@! TD*
G04 #@! TA.AperFunction,ComponentPad*
%ADD11R,1.350000X1.350000*%
G04 #@! TD*
G04 #@! TA.AperFunction,ComponentPad*
%ADD12O,1.600000X1.600000*%
G04 #@! TD*
G04 #@! TA.AperFunction,ComponentPad*
%ADD13R,1.600000X1.600000*%
G04 #@! TD*
G04 #@! TA.AperFunction,Conductor*
%ADD14C,0.254000*%
G04 #@! TD*
G04 APERTURE END LIST*
D10*
G04 #@! TO.P,J1,6*
G04 #@! TO.N,GND*
X125500000Y-90750000D03*
G04 #@! TO.P,J1,4*
G04 #@! TO.N,MOSI*
X125500000Y-92750000D03*
G04 #@! TO.P,J1,2*
G04 #@! TO.N,+3V3*
X125500000Y-94750000D03*
G04 #@! TO.P,J1,5*
G04 #@! TO.N,RESET*
X127500000Y-90750000D03*
G04 #@! TO.P,J1,3*
G04 #@! TO.N,SCK*
X127500000Y-92750000D03*
D11*
G04 #@! TO.P,J1,1*
G04 #@! TO.N,MISO*
X127500000Y-94750000D03*
G04 #@! TD*
D12*
G04 #@! TO.P,U1,8*
G04 #@! TO.N,+3V3*
X142995001Y-88575001D03*
G04 #@! TO.P,U1,4*
G04 #@! TO.N,GND*
X135375001Y-96195001D03*
G04 #@! TO.P,U1,7*
G04 #@! TO.N,SCK*
X142995001Y-91115001D03*
G04 #@! TO.P,U1,3*
G04 #@! TO.N,Net-(U1-Pad3)*
X135375001Y-93655001D03*
G04 #@! TO.P,U1,6*
G04 #@! TO.N,MISO*
X142995001Y-93655001D03*
G04 #@! TO.P,U1,2*
G04 #@! TO.N,Net-(U1-Pad2)*
X135375001Y-91115001D03*
G04 #@! TO.P,U1,5*
G04 #@! TO.N,MOSI*
X142995001Y-96195001D03*
D13*
G04 #@! TO.P,U1,1*
G04 #@! TO.N,RESET*
X135375001Y-88575001D03*
G04 #@! TD*
D14*
G04 #@! TO.N,+3V3*
G36*
X144290000Y-87294092D02*
X144290000Y-87991997D01*
X144226042Y-87837578D01*
X143850135Y-87422612D01*
X143344042Y-87183087D01*
X143122001Y-87304372D01*
X143122001Y-88448001D01*
X143142001Y-88448001D01*
X143142001Y-88702001D01*
X143122001Y-88702001D01*
X143122001Y-88722001D01*
X142868001Y-88722001D01*
X142868001Y-88702001D01*
X141725086Y-88702001D01*
X141603097Y-88924040D01*
X141763960Y-89312424D01*
X142139867Y-89727390D01*
X142344109Y-89824054D01*
X141960424Y-90080424D01*
X141643261Y-90555092D01*
X141531888Y-91115001D01*
X141643261Y-91674910D01*
X141960424Y-92149578D01*
X142312759Y-92385001D01*
X141960424Y-92620424D01*
X141643261Y-93095092D01*
X141531888Y-93655001D01*
X141643261Y-94214910D01*
X141960424Y-94689578D01*
X142312759Y-94925001D01*
X141960424Y-95160424D01*
X141643261Y-95635092D01*
X141531888Y-96195001D01*
X141643261Y-96754910D01*
X141960424Y-97229578D01*
X142435092Y-97546741D01*
X142853668Y-97630001D01*
X143136334Y-97630001D01*
X143554910Y-97546741D01*
X144029578Y-97229578D01*
X144290001Y-96839828D01*
X144290001Y-97705908D01*
X143705910Y-98290000D01*
X123294092Y-98290000D01*
X122710000Y-97705910D01*
X122710000Y-94563100D01*
X124177478Y-94563100D01*
X124206625Y-95083434D01*
X124349672Y-95428781D01*
X124582853Y-95487542D01*
X125320395Y-94750000D01*
X124582853Y-94012458D01*
X124349672Y-94071219D01*
X124177478Y-94563100D01*
X122710000Y-94563100D01*
X122710000Y-90489425D01*
X124190000Y-90489425D01*
X124190000Y-91010575D01*
X124389436Y-91492055D01*
X124647381Y-91750000D01*
X124389436Y-92007945D01*
X124190000Y-92489425D01*
X124190000Y-93010575D01*
X124389436Y-93492055D01*
X124757945Y-93860564D01*
X124812955Y-93883350D01*
X125500000Y-94570395D01*
X125514143Y-94556253D01*
X125693748Y-94735858D01*
X125679605Y-94750000D01*
X125693748Y-94764143D01*
X125514143Y-94943748D01*
X125500000Y-94929605D01*
X124762458Y-95667147D01*
X124821219Y-95900328D01*
X125313100Y-96072522D01*
X125833434Y-96043375D01*
X126178781Y-95900328D01*
X126233584Y-95682854D01*
X126367191Y-95882809D01*
X126577235Y-96023157D01*
X126825000Y-96072440D01*
X128175000Y-96072440D01*
X128422765Y-96023157D01*
X128632809Y-95882809D01*
X128773157Y-95672765D01*
X128822440Y-95425000D01*
X128822440Y-94075000D01*
X128773157Y-93827235D01*
X128632809Y-93617191D01*
X128544461Y-93558158D01*
X128610564Y-93492055D01*
X128810000Y-93010575D01*
X128810000Y-92489425D01*
X128610564Y-92007945D01*
X128352619Y-91750000D01*
X128610564Y-91492055D01*
X128766745Y-91115001D01*
X133911888Y-91115001D01*
X134023261Y-91674910D01*
X134340424Y-92149578D01*
X134692759Y-92385001D01*
X134340424Y-92620424D01*
X134023261Y-93095092D01*
X133911888Y-93655001D01*
X134023261Y-94214910D01*
X134340424Y-94689578D01*
X134692759Y-94925001D01*
X134340424Y-95160424D01*
X134023261Y-95635092D01*
X133911888Y-96195001D01*
X134023261Y-96754910D01*
X134340424Y-97229578D01*
X134815092Y-97546741D01*
X135233668Y-97630001D01*
X135516334Y-97630001D01*
X135934910Y-97546741D01*
X136409578Y-97229578D01*
X136726741Y-96754910D01*
X136838114Y-96195001D01*
X136726741Y-95635092D01*
X136409578Y-95160424D01*
X136057243Y-94925001D01*
X136409578Y-94689578D01*
X136726741Y-94214910D01*
X136838114Y-93655001D01*
X136726741Y-93095092D01*
X136409578Y-92620424D01*
X136057243Y-92385001D01*
X136409578Y-92149578D01*
X136726741Y-91674910D01*
X136838114Y-91115001D01*
X136726741Y-90555092D01*
X136409578Y-90080424D01*
X136288895Y-89999786D01*
X136422766Y-89973158D01*
X136632810Y-89832810D01*
X136773158Y-89622766D01*
X136822441Y-89375001D01*
X136822441Y-88225962D01*
X141603097Y-88225962D01*
X141725086Y-88448001D01*
X142868001Y-88448001D01*
X142868001Y-87304372D01*
X142645960Y-87183087D01*
X142139867Y-87422612D01*
X141763960Y-87837578D01*
X141603097Y-88225962D01*
X136822441Y-88225962D01*
X136822441Y-87775001D01*
X136773158Y-87527236D01*
X136632810Y-87317192D01*
X136422766Y-87176844D01*
X136175001Y-87127561D01*
X134575001Y-87127561D01*
X134327236Y-87176844D01*
X134117192Y-87317192D01*
X133976844Y-87527236D01*
X133927561Y-87775001D01*
X133927561Y-89375001D01*
X133976844Y-89622766D01*
X134117192Y-89832810D01*
X134327236Y-89973158D01*
X134461107Y-89999786D01*
X134340424Y-90080424D01*
X134023261Y-90555092D01*
X133911888Y-91115001D01*
X128766745Y-91115001D01*
X128810000Y-91010575D01*
X128810000Y-90489425D01*
X128610564Y-90007945D01*
X128242055Y-89639436D01*
X127760575Y-89440000D01*
X127239425Y-89440000D01*
X126757945Y-89639436D01*
X126500000Y-89897381D01*
X126242055Y-89639436D01*
X125760575Y-89440000D01*
X125239425Y-89440000D01*
X124757945Y-89639436D01*
X124389436Y-90007945D01*
X124190000Y-90489425D01*
X122710000Y-90489425D01*
X122710000Y-87294090D01*
X123294092Y-86710000D01*
X143705910Y-86710000D01*
X144290000Y-87294092D01*
X144290000Y-87294092D01*
G37*
X144290000Y-87294092D02*
X144290000Y-87991997D01*
X144226042Y-87837578D01*
X143850135Y-87422612D01*
X143344042Y-87183087D01*
X143122001Y-87304372D01*
X143122001Y-88448001D01*
X143142001Y-88448001D01*
X143142001Y-88702001D01*
X143122001Y-88702001D01*
X143122001Y-88722001D01*
X142868001Y-88722001D01*
X142868001Y-88702001D01*
X141725086Y-88702001D01*
X141603097Y-88924040D01*
X141763960Y-89312424D01*
X142139867Y-89727390D01*
X142344109Y-89824054D01*
X141960424Y-90080424D01*
X141643261Y-90555092D01*
X141531888Y-91115001D01*
X141643261Y-91674910D01*
X141960424Y-92149578D01*
X142312759Y-92385001D01*
X141960424Y-92620424D01*
X141643261Y-93095092D01*
X141531888Y-93655001D01*
X141643261Y-94214910D01*
X141960424Y-94689578D01*
X142312759Y-94925001D01*
X141960424Y-95160424D01*
X141643261Y-95635092D01*
X141531888Y-96195001D01*
X141643261Y-96754910D01*
X141960424Y-97229578D01*
X142435092Y-97546741D01*
X142853668Y-97630001D01*
X143136334Y-97630001D01*
X143554910Y-97546741D01*
X144029578Y-97229578D01*
X144290001Y-96839828D01*
X144290001Y-97705908D01*
X143705910Y-98290000D01*
X123294092Y-98290000D01*
X122710000Y-97705910D01*
X122710000Y-94563100D01*
X124177478Y-94563100D01*
X124206625Y-95083434D01*
X124349672Y-95428781D01*
X124582853Y-95487542D01*
X125320395Y-94750000D01*
X124582853Y-94012458D01*
X124349672Y-94071219D01*
X124177478Y-94563100D01*
X122710000Y-94563100D01*
X122710000Y-90489425D01*
X124190000Y-90489425D01*
X124190000Y-91010575D01*
X124389436Y-91492055D01*
X124647381Y-91750000D01*
X124389436Y-92007945D01*
X124190000Y-92489425D01*
X124190000Y-93010575D01*
X124389436Y-93492055D01*
X124757945Y-93860564D01*
X124812955Y-93883350D01*
X125500000Y-94570395D01*
X125514143Y-94556253D01*
X125693748Y-94735858D01*
X125679605Y-94750000D01*
X125693748Y-94764143D01*
X125514143Y-94943748D01*
X125500000Y-94929605D01*
X124762458Y-95667147D01*
X124821219Y-95900328D01*
X125313100Y-96072522D01*
X125833434Y-96043375D01*
X126178781Y-95900328D01*
X126233584Y-95682854D01*
X126367191Y-95882809D01*
X126577235Y-96023157D01*
X126825000Y-96072440D01*
X128175000Y-96072440D01*
X128422765Y-96023157D01*
X128632809Y-95882809D01*
X128773157Y-95672765D01*
X128822440Y-95425000D01*
X128822440Y-94075000D01*
X128773157Y-93827235D01*
X128632809Y-93617191D01*
X128544461Y-93558158D01*
X128610564Y-93492055D01*
X128810000Y-93010575D01*
X128810000Y-92489425D01*
X128610564Y-92007945D01*
X128352619Y-91750000D01*
X128610564Y-91492055D01*
X128766745Y-91115001D01*
X133911888Y-91115001D01*
X134023261Y-91674910D01*
X134340424Y-92149578D01*
X134692759Y-92385001D01*
X134340424Y-92620424D01*
X134023261Y-93095092D01*
X133911888Y-93655001D01*
X134023261Y-94214910D01*
X134340424Y-94689578D01*
X134692759Y-94925001D01*
X134340424Y-95160424D01*
X134023261Y-95635092D01*
X133911888Y-96195001D01*
X134023261Y-96754910D01*
X134340424Y-97229578D01*
X134815092Y-97546741D01*
X135233668Y-97630001D01*
X135516334Y-97630001D01*
X135934910Y-97546741D01*
X136409578Y-97229578D01*
X136726741Y-96754910D01*
X136838114Y-96195001D01*
X136726741Y-95635092D01*
X136409578Y-95160424D01*
X136057243Y-94925001D01*
X136409578Y-94689578D01*
X136726741Y-94214910D01*
X136838114Y-93655001D01*
X136726741Y-93095092D01*
X136409578Y-92620424D01*
X136057243Y-92385001D01*
X136409578Y-92149578D01*
X136726741Y-91674910D01*
X136838114Y-91115001D01*
X136726741Y-90555092D01*
X136409578Y-90080424D01*
X136288895Y-89999786D01*
X136422766Y-89973158D01*
X136632810Y-89832810D01*
X136773158Y-89622766D01*
X136822441Y-89375001D01*
X136822441Y-88225962D01*
X141603097Y-88225962D01*
X141725086Y-88448001D01*
X142868001Y-88448001D01*
X142868001Y-87304372D01*
X142645960Y-87183087D01*
X142139867Y-87422612D01*
X141763960Y-87837578D01*
X141603097Y-88225962D01*
X136822441Y-88225962D01*
X136822441Y-87775001D01*
X136773158Y-87527236D01*
X136632810Y-87317192D01*
X136422766Y-87176844D01*
X136175001Y-87127561D01*
X134575001Y-87127561D01*
X134327236Y-87176844D01*
X134117192Y-87317192D01*
X133976844Y-87527236D01*
X133927561Y-87775001D01*
X133927561Y-89375001D01*
X133976844Y-89622766D01*
X134117192Y-89832810D01*
X134327236Y-89973158D01*
X134461107Y-89999786D01*
X134340424Y-90080424D01*
X134023261Y-90555092D01*
X133911888Y-91115001D01*
X128766745Y-91115001D01*
X128810000Y-91010575D01*
X128810000Y-90489425D01*
X128610564Y-90007945D01*
X128242055Y-89639436D01*
X127760575Y-89440000D01*
X127239425Y-89440000D01*
X126757945Y-89639436D01*
X126500000Y-89897381D01*
X126242055Y-89639436D01*
X125760575Y-89440000D01*
X125239425Y-89440000D01*
X124757945Y-89639436D01*
X124389436Y-90007945D01*
X124190000Y-90489425D01*
X122710000Y-90489425D01*
X122710000Y-87294090D01*
X123294092Y-86710000D01*
X143705910Y-86710000D01*
X144290000Y-87294092D01*
G04 #@! TD*
M02*
