G04 #@! TF.GenerationSoftware,KiCad,Pcbnew,(5.0.0)*
G04 #@! TF.CreationDate,2018-10-02T11:21:32+01:00*
G04 #@! TF.ProjectId,ArchMage,417263684D6167652E6B696361645F70,rev?*
G04 #@! TF.SameCoordinates,Original*
G04 #@! TF.FileFunction,Soldermask,Top*
G04 #@! TF.FilePolarity,Negative*
%FSLAX46Y46*%
G04 Gerber Fmt 4.6, Leading zero omitted, Abs format (unit mm)*
G04 Created by KiCad (PCBNEW (5.0.0)) date 10/02/18 11:21:32*
%MOMM*%
%LPD*%
G01*
G04 APERTURE LIST*
%ADD10R,2.000000X2.000000*%
%ADD11O,2.000000X2.000000*%
%ADD12C,1.750000*%
%ADD13R,1.750000X1.750000*%
%ADD14R,1.900000X0.950000*%
%ADD15R,0.950000X1.900000*%
G04 APERTURE END LIST*
D10*
G04 #@! TO.C,J2*
X157500000Y-90750000D03*
D11*
X165120000Y-98370000D03*
X157500000Y-93290000D03*
X165120000Y-95830000D03*
X157500000Y-95830000D03*
X165120000Y-93290000D03*
X157500000Y-98370000D03*
X165120000Y-90750000D03*
G04 #@! TD*
D12*
G04 #@! TO.C,J1*
X163200000Y-83800000D03*
X161200000Y-83800000D03*
X159200000Y-83800000D03*
X163200000Y-85800000D03*
X161200000Y-85800000D03*
D13*
X159200000Y-85800000D03*
G04 #@! TD*
D14*
G04 #@! TO.C,U1*
X167000000Y-90600000D03*
X167000000Y-91400000D03*
X167000000Y-92200000D03*
X167000000Y-93000000D03*
X167000000Y-93800000D03*
X167000000Y-94600000D03*
X167000000Y-95400000D03*
X167000000Y-96200000D03*
X167000000Y-97000000D03*
X167000000Y-97800000D03*
X167000000Y-98600000D03*
D15*
X165300000Y-100300000D03*
X164500000Y-100300000D03*
X163700000Y-100300000D03*
X162900000Y-100300000D03*
X162100000Y-100300000D03*
X161300000Y-100300000D03*
X160500000Y-100300000D03*
X159700000Y-100300000D03*
X158900000Y-100300000D03*
X158100000Y-100300000D03*
X157300000Y-100300000D03*
D14*
X155600000Y-98600000D03*
X155600000Y-97800000D03*
X155600000Y-97000000D03*
X155600000Y-96200000D03*
X155600000Y-95400000D03*
X155600000Y-94600000D03*
X155600000Y-93800000D03*
X155600000Y-93000000D03*
X155600000Y-92200000D03*
X155600000Y-91400000D03*
X155600000Y-90600000D03*
D15*
X157300000Y-88900000D03*
X158100000Y-88900000D03*
X158900000Y-88900000D03*
X159700000Y-88900000D03*
X160500000Y-88900000D03*
X161300000Y-88900000D03*
X162100000Y-88900000D03*
X162900000Y-88900000D03*
X163700000Y-88900000D03*
X164500000Y-88900000D03*
X165300000Y-88900000D03*
G04 #@! TD*
M02*
