G04 #@! TF.GenerationSoftware,KiCad,Pcbnew,(5.0.0)*
G04 #@! TF.CreationDate,2018-10-02T11:21:32+01:00*
G04 #@! TF.ProjectId,ArchMage,417263684D6167652E6B696361645F70,rev?*
G04 #@! TF.SameCoordinates,Original*
G04 #@! TF.FileFunction,Copper,L1,Top,Signal*
G04 #@! TF.FilePolarity,Positive*
%FSLAX46Y46*%
G04 Gerber Fmt 4.6, Leading zero omitted, Abs format (unit mm)*
G04 Created by KiCad (PCBNEW (5.0.0)) date 10/02/18 11:21:32*
%MOMM*%
%LPD*%
G01*
G04 APERTURE LIST*
G04 #@! TA.AperFunction,ComponentPad*
%ADD10R,1.600000X1.600000*%
G04 #@! TD*
G04 #@! TA.AperFunction,ComponentPad*
%ADD11O,1.600000X1.600000*%
G04 #@! TD*
G04 #@! TA.AperFunction,ComponentPad*
%ADD12C,1.350000*%
G04 #@! TD*
G04 #@! TA.AperFunction,ComponentPad*
%ADD13R,1.350000X1.350000*%
G04 #@! TD*
G04 #@! TA.AperFunction,SMDPad,CuDef*
%ADD14R,1.500000X0.550000*%
G04 #@! TD*
G04 #@! TA.AperFunction,SMDPad,CuDef*
%ADD15R,0.550000X1.500000*%
G04 #@! TD*
G04 #@! TA.AperFunction,ViaPad*
%ADD16C,0.800000*%
G04 #@! TD*
G04 #@! TA.AperFunction,Conductor*
%ADD17C,0.250000*%
G04 #@! TD*
G04 APERTURE END LIST*
D10*
G04 #@! TO.P,J2,1*
G04 #@! TO.N,RESET*
X157500000Y-90750000D03*
D11*
G04 #@! TO.P,J2,5*
G04 #@! TO.N,PB0*
X165120000Y-98370000D03*
G04 #@! TO.P,J2,2*
G04 #@! TO.N,PB3*
X157500000Y-93290000D03*
G04 #@! TO.P,J2,6*
G04 #@! TO.N,PB1*
X165120000Y-95830000D03*
G04 #@! TO.P,J2,3*
G04 #@! TO.N,AD2*
X157500000Y-95830000D03*
G04 #@! TO.P,J2,7*
G04 #@! TO.N,PB2*
X165120000Y-93290000D03*
G04 #@! TO.P,J2,4*
G04 #@! TO.N,GND*
X157500000Y-98370000D03*
G04 #@! TO.P,J2,8*
G04 #@! TO.N,Vcc*
X165120000Y-90750000D03*
G04 #@! TD*
D12*
G04 #@! TO.P,J1,6*
G04 #@! TO.N,SCK*
X163200000Y-83800000D03*
G04 #@! TO.P,J1,5*
G04 #@! TO.N,MISO*
X161200000Y-83800000D03*
G04 #@! TO.P,J1,4*
G04 #@! TO.N,MOSI*
X159200000Y-83800000D03*
G04 #@! TO.P,J1,3*
G04 #@! TO.N,RESET*
X163200000Y-85800000D03*
G04 #@! TO.P,J1,2*
G04 #@! TO.N,Vcc*
X161200000Y-85800000D03*
D13*
G04 #@! TO.P,J1,1*
G04 #@! TO.N,GND*
X159200000Y-85800000D03*
G04 #@! TD*
D14*
G04 #@! TO.P,U1,44*
G04 #@! TO.N,N/C*
X167000000Y-90600000D03*
G04 #@! TO.P,U1,43*
G04 #@! TO.N,PB3*
X167000000Y-91400000D03*
G04 #@! TO.P,U1,42*
G04 #@! TO.N,PB2*
X167000000Y-92200000D03*
G04 #@! TO.P,U1,41*
G04 #@! TO.N,PB1*
X167000000Y-93000000D03*
G04 #@! TO.P,U1,40*
G04 #@! TO.N,PB0*
X167000000Y-93800000D03*
G04 #@! TO.P,U1,39*
G04 #@! TO.N,GND*
X167000000Y-94600000D03*
G04 #@! TO.P,U1,38*
G04 #@! TO.N,Vcc*
X167000000Y-95400000D03*
G04 #@! TO.P,U1,37*
G04 #@! TO.N,N/C*
X167000000Y-96200000D03*
G04 #@! TO.P,U1,36*
X167000000Y-97000000D03*
G04 #@! TO.P,U1,35*
G04 #@! TO.N,AD2*
X167000000Y-97800000D03*
G04 #@! TO.P,U1,34*
G04 #@! TO.N,N/C*
X167000000Y-98600000D03*
D15*
G04 #@! TO.P,U1,33*
X165300000Y-100300000D03*
G04 #@! TO.P,U1,32*
X164500000Y-100300000D03*
G04 #@! TO.P,U1,31*
X163700000Y-100300000D03*
G04 #@! TO.P,U1,30*
X162900000Y-100300000D03*
G04 #@! TO.P,U1,29*
X162100000Y-100300000D03*
G04 #@! TO.P,U1,28*
G04 #@! TO.N,GND*
X161300000Y-100300000D03*
G04 #@! TO.P,U1,27*
G04 #@! TO.N,Vcc*
X160500000Y-100300000D03*
G04 #@! TO.P,U1,26*
G04 #@! TO.N,N/C*
X159700000Y-100300000D03*
G04 #@! TO.P,U1,25*
X158900000Y-100300000D03*
G04 #@! TO.P,U1,24*
X158100000Y-100300000D03*
G04 #@! TO.P,U1,23*
X157300000Y-100300000D03*
D14*
G04 #@! TO.P,U1,22*
X155600000Y-98600000D03*
G04 #@! TO.P,U1,21*
X155600000Y-97800000D03*
G04 #@! TO.P,U1,20*
X155600000Y-97000000D03*
G04 #@! TO.P,U1,19*
X155600000Y-96200000D03*
G04 #@! TO.P,U1,18*
G04 #@! TO.N,GND*
X155600000Y-95400000D03*
G04 #@! TO.P,U1,17*
G04 #@! TO.N,Vcc*
X155600000Y-94600000D03*
G04 #@! TO.P,U1,16*
G04 #@! TO.N,N/C*
X155600000Y-93800000D03*
G04 #@! TO.P,U1,15*
X155600000Y-93000000D03*
G04 #@! TO.P,U1,14*
X155600000Y-92200000D03*
G04 #@! TO.P,U1,13*
X155600000Y-91400000D03*
G04 #@! TO.P,U1,12*
X155600000Y-90600000D03*
D15*
G04 #@! TO.P,U1,11*
X157300000Y-88900000D03*
G04 #@! TO.P,U1,10*
X158100000Y-88900000D03*
G04 #@! TO.P,U1,9*
X158900000Y-88900000D03*
G04 #@! TO.P,U1,8*
X159700000Y-88900000D03*
G04 #@! TO.P,U1,7*
X160500000Y-88900000D03*
G04 #@! TO.P,U1,6*
G04 #@! TO.N,GND*
X161300000Y-88900000D03*
G04 #@! TO.P,U1,5*
G04 #@! TO.N,Vcc*
X162100000Y-88900000D03*
G04 #@! TO.P,U1,4*
G04 #@! TO.N,RESET*
X162900000Y-88900000D03*
G04 #@! TO.P,U1,3*
G04 #@! TO.N,SCK*
X163700000Y-88900000D03*
G04 #@! TO.P,U1,2*
G04 #@! TO.N,MISO*
X164500000Y-88900000D03*
G04 #@! TO.P,U1,1*
G04 #@! TO.N,MOSI*
X165300000Y-88900000D03*
G04 #@! TD*
D16*
G04 #@! TO.N,RESET*
X162900000Y-90700000D03*
G04 #@! TO.N,AD2*
X163500000Y-97100000D03*
G04 #@! TO.N,PB1*
X168500000Y-93000000D03*
G04 #@! TD*
D17*
G04 #@! TO.N,MOSI*
X165300000Y-87900000D02*
X165300000Y-88900000D01*
X165300020Y-87899980D02*
X165300000Y-87900000D01*
X165300020Y-83783608D02*
X165300020Y-87899980D01*
X163666403Y-82149991D02*
X165300020Y-83783608D01*
X160850010Y-82149990D02*
X163666403Y-82149991D01*
X159200000Y-83800000D02*
X160850010Y-82149990D01*
G04 #@! TO.N,RESET*
X162900000Y-87900000D02*
X162900000Y-88900000D01*
X162900000Y-87054594D02*
X162900000Y-87900000D01*
X163200000Y-86754594D02*
X162900000Y-87054594D01*
X163200000Y-85800000D02*
X163200000Y-86754594D01*
X162900000Y-88900000D02*
X162900000Y-90700000D01*
G04 #@! TO.N,MISO*
X164500000Y-87900000D02*
X164500000Y-88900000D01*
X164850010Y-87549990D02*
X164500000Y-87900000D01*
X164850010Y-83970008D02*
X164850010Y-87549990D01*
X163480002Y-82600000D02*
X164850010Y-83970008D01*
X162400000Y-82600000D02*
X163480002Y-82600000D01*
X161200000Y-83800000D02*
X162400000Y-82600000D01*
G04 #@! TO.N,GND*
X161300000Y-99300000D02*
X161300000Y-100300000D01*
X160370000Y-98370000D02*
X161300000Y-99300000D01*
X157500000Y-98370000D02*
X160370000Y-98370000D01*
X161300000Y-87900000D02*
X161300000Y-88900000D01*
X159200000Y-85800000D02*
X161300000Y-87900000D01*
G04 #@! TO.N,PB2*
X166210000Y-92200000D02*
X165120000Y-93290000D01*
X167000000Y-92200000D02*
X166210000Y-92200000D01*
G04 #@! TO.N,Vcc*
X162100000Y-86700000D02*
X162100000Y-88900000D01*
X161200000Y-85800000D02*
X162100000Y-86700000D01*
X161900001Y-89099999D02*
X162100000Y-88900000D01*
X161900001Y-90773003D02*
X161900001Y-89099999D01*
X162551999Y-91425001D02*
X161900001Y-90773003D01*
X163248001Y-91425001D02*
X162551999Y-91425001D01*
X163923002Y-90750000D02*
X163248001Y-91425001D01*
X165120000Y-90750000D02*
X163923002Y-90750000D01*
G04 #@! TO.N,AD2*
X166189998Y-97800000D02*
X167000000Y-97800000D01*
X165489998Y-97100000D02*
X166189998Y-97800000D01*
X164724998Y-97100000D02*
X165489998Y-97100000D01*
X164324999Y-96700001D02*
X164724998Y-97100000D01*
X163899999Y-96700001D02*
X164324999Y-96700001D01*
X163500000Y-97100000D02*
X163899999Y-96700001D01*
G04 #@! TO.N,PB3*
X166189998Y-91400000D02*
X167000000Y-91400000D01*
X165424999Y-92164999D02*
X166189998Y-91400000D01*
X159756371Y-92164999D02*
X165424999Y-92164999D01*
X158631370Y-93290000D02*
X159756371Y-92164999D01*
X157500000Y-93290000D02*
X158631370Y-93290000D01*
G04 #@! TO.N,SCK*
X163700000Y-87900000D02*
X163700000Y-88900000D01*
X164400000Y-87200000D02*
X163700000Y-87900000D01*
X164400000Y-85000000D02*
X164400000Y-87200000D01*
X163200000Y-83800000D02*
X164400000Y-85000000D01*
G04 #@! TO.N,PB1*
X167000000Y-93000000D02*
X168700000Y-93000000D01*
G04 #@! TO.N,PB0*
X165660001Y-94415001D02*
X166275002Y-93800000D01*
X166275002Y-93800000D02*
X167000000Y-93800000D01*
X164869997Y-94415001D02*
X165660001Y-94415001D01*
X162774999Y-96509999D02*
X164869997Y-94415001D01*
X162774999Y-97448001D02*
X162774999Y-96509999D01*
X163696998Y-98370000D02*
X162774999Y-97448001D01*
X165120000Y-98370000D02*
X163696998Y-98370000D01*
G04 #@! TD*
M02*
